<mxfile host="65bd71144e" pages="3">
    <diagram id="C5RBs43oDa-KdzZeNtuy" name="Page-1">
        <mxGraphModel dx="1086" dy="2093" grid="1" gridSize="10" guides="1" tooltips="1" connect="1" arrows="1" fold="1" page="0" pageScale="1" pageWidth="1169" pageHeight="827" math="0" shadow="0">
            <root>
                <mxCell id="WIyWlLk6GJQsqaUBKTNV-0"/>
                <mxCell id="WIyWlLk6GJQsqaUBKTNV-1" parent="WIyWlLk6GJQsqaUBKTNV-0"/>
                <mxCell id="H_NpJNuQB-T0yBPUIwQh-15" value="" style="edgeStyle=none;rounded=0;orthogonalLoop=1;jettySize=auto;html=1;fontSize=14;strokeWidth=2;entryX=0;entryY=0.5;entryDx=0;entryDy=0;exitX=1.012;exitY=0.162;exitDx=0;exitDy=0;exitPerimeter=0;" parent="WIyWlLk6GJQsqaUBKTNV-1" source="H_NpJNuQB-T0yBPUIwQh-0" target="H_NpJNuQB-T0yBPUIwQh-12" edge="1">
                    <mxGeometry relative="1" as="geometry"/>
                </mxCell>
                <mxCell id="H_NpJNuQB-T0yBPUIwQh-0" value="ConstructionModel" style="swimlane;fontStyle=1;childLayout=stackLayout;horizontal=1;startSize=30;horizontalStack=0;resizeParent=1;resizeParentMax=0;resizeLast=0;collapsible=1;marginBottom=0;fontSize=14;labelBackgroundColor=none;fillColor=#f8cecc;strokeColor=#b85450;" parent="WIyWlLk6GJQsqaUBKTNV-1" vertex="1">
                    <mxGeometry x="250" y="-483" width="180" height="120" as="geometry"/>
                </mxCell>
                <mxCell id="H_NpJNuQB-T0yBPUIwQh-1" value="id:string" style="text;strokeColor=none;fillColor=none;align=left;verticalAlign=middle;spacingLeft=4;spacingRight=4;overflow=hidden;points=[[0,0.5],[1,0.5]];portConstraint=eastwest;rotatable=0;fontSize=14;" parent="H_NpJNuQB-T0yBPUIwQh-0" vertex="1">
                    <mxGeometry y="30" width="180" height="30" as="geometry"/>
                </mxCell>
                <mxCell id="H_NpJNuQB-T0yBPUIwQh-2" value="grid:IGridRow[]" style="text;strokeColor=none;fillColor=none;align=left;verticalAlign=middle;spacingLeft=4;spacingRight=4;overflow=hidden;points=[[0,0.5],[1,0.5]];portConstraint=eastwest;rotatable=0;fontSize=14;" parent="H_NpJNuQB-T0yBPUIwQh-0" vertex="1">
                    <mxGeometry y="60" width="180" height="30" as="geometry"/>
                </mxCell>
                <mxCell id="H_NpJNuQB-T0yBPUIwQh-3" value="frCode: string" style="text;strokeColor=none;fillColor=none;align=left;verticalAlign=middle;spacingLeft=4;spacingRight=4;overflow=hidden;points=[[0,0.5],[1,0.5]];portConstraint=eastwest;rotatable=0;fontSize=14;" parent="H_NpJNuQB-T0yBPUIwQh-0" vertex="1">
                    <mxGeometry y="90" width="180" height="30" as="geometry"/>
                </mxCell>
                <mxCell id="H_NpJNuQB-T0yBPUIwQh-9" style="rounded=0;orthogonalLoop=1;jettySize=auto;html=1;fontSize=14;entryX=0;entryY=0.5;entryDx=0;entryDy=0;exitX=1.001;exitY=0.14;exitDx=0;exitDy=0;exitPerimeter=0;strokeWidth=2;" parent="WIyWlLk6GJQsqaUBKTNV-1" source="H_NpJNuQB-T0yBPUIwQh-5" target="H_NpJNuQB-T0yBPUIwQh-2" edge="1">
                    <mxGeometry relative="1" as="geometry">
                        <mxPoint x="60" y="-413" as="sourcePoint"/>
                        <mxPoint x="80" y="-373" as="targetPoint"/>
                    </mxGeometry>
                </mxCell>
                <mxCell id="H_NpJNuQB-T0yBPUIwQh-5" value="GridRow" style="swimlane;fontStyle=1;align=center;verticalAlign=top;childLayout=stackLayout;horizontal=1;startSize=26;horizontalStack=0;resizeParent=1;resizeParentMax=0;resizeLast=0;collapsible=1;marginBottom=0;labelBackgroundColor=none;fontSize=14;" parent="WIyWlLk6GJQsqaUBKTNV-1" vertex="1">
                    <mxGeometry x="50" y="-443" width="160" height="86" as="geometry">
                        <mxRectangle x="330" y="400" width="110" height="26" as="alternateBounds"/>
                    </mxGeometry>
                </mxCell>
                <mxCell id="H_NpJNuQB-T0yBPUIwQh-6" value="+ row_id: string" style="text;strokeColor=none;fillColor=none;align=left;verticalAlign=top;spacingLeft=4;spacingRight=4;overflow=hidden;rotatable=0;points=[[0,0.5],[1,0.5]];portConstraint=eastwest;labelBackgroundColor=none;fontSize=14;" parent="H_NpJNuQB-T0yBPUIwQh-5" vertex="1">
                    <mxGeometry y="26" width="160" height="26" as="geometry"/>
                </mxCell>
                <mxCell id="H_NpJNuQB-T0yBPUIwQh-7" value="" style="line;strokeWidth=1;fillColor=none;align=left;verticalAlign=middle;spacingTop=-1;spacingLeft=3;spacingRight=3;rotatable=0;labelPosition=right;points=[];portConstraint=eastwest;labelBackgroundColor=none;fontSize=14;" parent="H_NpJNuQB-T0yBPUIwQh-5" vertex="1">
                    <mxGeometry y="52" width="160" height="8" as="geometry"/>
                </mxCell>
                <mxCell id="H_NpJNuQB-T0yBPUIwQh-8" value="+ cols: number" style="text;strokeColor=none;fillColor=none;align=left;verticalAlign=top;spacingLeft=4;spacingRight=4;overflow=hidden;rotatable=0;points=[[0,0.5],[1,0.5]];portConstraint=eastwest;labelBackgroundColor=none;fontSize=14;" parent="H_NpJNuQB-T0yBPUIwQh-5" vertex="1">
                    <mxGeometry y="60" width="160" height="26" as="geometry"/>
                </mxCell>
                <mxCell id="H_NpJNuQB-T0yBPUIwQh-20" value="" style="edgeStyle=none;rounded=0;orthogonalLoop=1;jettySize=auto;html=1;fontSize=14;strokeWidth=2;entryX=0.006;entryY=0.37;entryDx=0;entryDy=0;entryPerimeter=0;" parent="WIyWlLk6GJQsqaUBKTNV-1" source="H_NpJNuQB-T0yBPUIwQh-10" target="H_NpJNuQB-T0yBPUIwQh-16" edge="1">
                    <mxGeometry relative="1" as="geometry"/>
                </mxCell>
                <mxCell id="H_NpJNuQB-T0yBPUIwQh-10" value="FrameStoreItem" style="swimlane;fontStyle=1;childLayout=stackLayout;horizontal=1;startSize=30;horizontalStack=0;resizeParent=1;resizeParentMax=0;resizeLast=0;collapsible=1;marginBottom=0;fontSize=14;labelBackgroundColor=none;fillColor=#f8cecc;strokeColor=#b85450;" parent="WIyWlLk6GJQsqaUBKTNV-1" vertex="1">
                    <mxGeometry x="530" y="-483" width="260" height="150" as="geometry"/>
                </mxCell>
                <mxCell id="H_NpJNuQB-T0yBPUIwQh-11" value="id:string" style="text;strokeColor=none;fillColor=none;align=left;verticalAlign=middle;spacingLeft=4;spacingRight=4;overflow=hidden;points=[[0,0.5],[1,0.5]];portConstraint=eastwest;rotatable=0;fontSize=14;" parent="H_NpJNuQB-T0yBPUIwQh-10" vertex="1">
                    <mxGeometry y="30" width="260" height="30" as="geometry"/>
                </mxCell>
                <mxCell id="H_NpJNuQB-T0yBPUIwQh-14" value="frameName:string" style="text;strokeColor=none;fillColor=none;align=left;verticalAlign=middle;spacingLeft=4;spacingRight=4;overflow=hidden;points=[[0,0.5],[1,0.5]];portConstraint=eastwest;rotatable=0;fontSize=14;" parent="H_NpJNuQB-T0yBPUIwQh-10" vertex="1">
                    <mxGeometry y="60" width="260" height="30" as="geometry"/>
                </mxCell>
                <mxCell id="H_NpJNuQB-T0yBPUIwQh-12" value="frameBox: Array&lt;ConstModel&gt;" style="text;strokeColor=none;fillColor=none;align=left;verticalAlign=middle;spacingLeft=4;spacingRight=4;overflow=hidden;points=[[0,0.5],[1,0.5]];portConstraint=eastwest;rotatable=0;fontSize=14;" parent="H_NpJNuQB-T0yBPUIwQh-10" vertex="1">
                    <mxGeometry y="90" width="260" height="30" as="geometry"/>
                </mxCell>
                <mxCell id="H_NpJNuQB-T0yBPUIwQh-13" value="frCode: string" style="text;strokeColor=none;fillColor=none;align=left;verticalAlign=middle;spacingLeft=4;spacingRight=4;overflow=hidden;points=[[0,0.5],[1,0.5]];portConstraint=eastwest;rotatable=0;fontSize=14;" parent="H_NpJNuQB-T0yBPUIwQh-10" vertex="1">
                    <mxGeometry y="120" width="260" height="30" as="geometry"/>
                </mxCell>
                <mxCell id="H_NpJNuQB-T0yBPUIwQh-16" value="FrameStore" style="swimlane;fontStyle=1;childLayout=stackLayout;horizontal=1;startSize=30;horizontalStack=0;resizeParent=1;resizeParentMax=0;resizeLast=0;collapsible=1;marginBottom=0;fontSize=14;labelBackgroundColor=none;fillColor=#f8cecc;strokeColor=#b85450;" parent="WIyWlLk6GJQsqaUBKTNV-1" vertex="1">
                    <mxGeometry x="560" y="-220" width="180" height="60" as="geometry"/>
                </mxCell>
                <mxCell id="H_NpJNuQB-T0yBPUIwQh-17" value="store: FrameStoreItems[]" style="text;strokeColor=none;fillColor=none;align=left;verticalAlign=middle;spacingLeft=4;spacingRight=4;overflow=hidden;points=[[0,0.5],[1,0.5]];portConstraint=eastwest;rotatable=0;fontSize=14;" parent="H_NpJNuQB-T0yBPUIwQh-16" vertex="1">
                    <mxGeometry y="30" width="180" height="30" as="geometry"/>
                </mxCell>
                <mxCell id="H_NpJNuQB-T0yBPUIwQh-35" value="PreviewCardList" style="swimlane;labelBackgroundColor=none;fontSize=14;verticalAlign=middle;" parent="WIyWlLk6GJQsqaUBKTNV-1" vertex="1">
                    <mxGeometry x="830" y="-820" width="300" height="790" as="geometry">
                        <mxRectangle x="880" y="-770" width="150" height="27" as="alternateBounds"/>
                    </mxGeometry>
                </mxCell>
                <mxCell id="H_NpJNuQB-T0yBPUIwQh-86" value="" style="group" parent="H_NpJNuQB-T0yBPUIwQh-35" vertex="1" connectable="0">
                    <mxGeometry x="37.5" y="420" width="225" height="270" as="geometry"/>
                </mxCell>
                <mxCell id="H_NpJNuQB-T0yBPUIwQh-87" value="frameCode:string&lt;hr&gt;model_id:string&lt;hr&gt;" style="html=1;shadow=0;dashed=0;shape=mxgraph.bootstrap.rrect;rSize=5;strokeColor=#000000;html=1;whiteSpace=wrap;fillColor=#ffffff;fontColor=#000000;verticalAlign=bottom;align=left;spacing=20;fontSize=14;labelBackgroundColor=none;strokeWidth=3;perimeterSpacing=1;" parent="H_NpJNuQB-T0yBPUIwQh-86" vertex="1">
                    <mxGeometry width="225" height="270" as="geometry"/>
                </mxCell>
                <mxCell id="H_NpJNuQB-T0yBPUIwQh-55" value="" style="group;labelBackgroundColor=none;fontSize=14;fontColor=#000000;strokeColor=#000000;strokeWidth=3;fillColor=default;gradientColor=#66B2FF;gradientDirection=east;" parent="H_NpJNuQB-T0yBPUIwQh-86" vertex="1" connectable="0">
                    <mxGeometry x="47.5" y="40" width="130" height="130" as="geometry"/>
                </mxCell>
                <mxCell id="H_NpJNuQB-T0yBPUIwQh-56" value="" style="whiteSpace=wrap;html=1;aspect=fixed;labelBackgroundColor=none;fontSize=14;strokeWidth=3;gradientColor=none;gradientDirection=east;fontColor=#000000;" parent="H_NpJNuQB-T0yBPUIwQh-55" vertex="1">
                    <mxGeometry width="130" height="130" as="geometry"/>
                </mxCell>
                <mxCell id="H_NpJNuQB-T0yBPUIwQh-57" value="" style="rounded=0;whiteSpace=wrap;html=1;labelBackgroundColor=none;fontSize=14;strokeColor=#000000;strokeWidth=3;fillColor=#999999;gradientColor=#66B2FF;gradientDirection=east;fontColor=#000000;" parent="H_NpJNuQB-T0yBPUIwQh-55" vertex="1">
                    <mxGeometry x="25" y="20" width="35" height="90" as="geometry"/>
                </mxCell>
                <mxCell id="H_NpJNuQB-T0yBPUIwQh-58" value="" style="rounded=0;whiteSpace=wrap;html=1;labelBackgroundColor=none;fontSize=14;strokeColor=#000000;strokeWidth=3;fillColor=#999999;gradientColor=#66B2FF;gradientDirection=east;fontColor=#000000;" parent="H_NpJNuQB-T0yBPUIwQh-55" vertex="1">
                    <mxGeometry x="75" y="20" width="35" height="90" as="geometry"/>
                </mxCell>
                <mxCell id="H_NpJNuQB-T0yBPUIwQh-93" value="PreViewCard Name" style="text;html=1;strokeColor=none;fillColor=none;align=center;verticalAlign=middle;whiteSpace=wrap;rounded=0;labelBackgroundColor=none;fontSize=14;fontColor=#000000;" parent="H_NpJNuQB-T0yBPUIwQh-86" vertex="1">
                    <mxGeometry x="30" y="10" width="170" height="20" as="geometry"/>
                </mxCell>
                <mxCell id="H_NpJNuQB-T0yBPUIwQh-73" value="" style="group" parent="H_NpJNuQB-T0yBPUIwQh-35" vertex="1" connectable="0">
                    <mxGeometry x="37.5" y="130" width="225" height="270" as="geometry"/>
                </mxCell>
                <mxCell id="H_NpJNuQB-T0yBPUIwQh-33" value="frameCode:string&lt;hr&gt;model_id:string&lt;hr&gt;" style="html=1;shadow=0;dashed=0;shape=mxgraph.bootstrap.rrect;rSize=5;strokeColor=#000000;html=1;whiteSpace=wrap;fillColor=#ffffff;fontColor=#000000;verticalAlign=bottom;align=left;spacing=20;fontSize=14;labelBackgroundColor=none;strokeWidth=3;perimeterSpacing=1;" parent="H_NpJNuQB-T0yBPUIwQh-73" vertex="1">
                    <mxGeometry width="225" height="270" as="geometry"/>
                </mxCell>
                <mxCell id="H_NpJNuQB-T0yBPUIwQh-67" value="" style="group;labelBackgroundColor=none;fontSize=14;fontColor=#000000;strokeColor=#000000;strokeWidth=3;fillColor=default;gradientColor=#66B2FF;gradientDirection=east;" parent="H_NpJNuQB-T0yBPUIwQh-73" vertex="1" connectable="0">
                    <mxGeometry x="50" y="40" width="130" height="130" as="geometry"/>
                </mxCell>
                <mxCell id="H_NpJNuQB-T0yBPUIwQh-68" value="" style="whiteSpace=wrap;html=1;aspect=fixed;labelBackgroundColor=none;fontSize=14;strokeWidth=3;gradientColor=none;gradientDirection=east;fontColor=#000000;" parent="H_NpJNuQB-T0yBPUIwQh-67" vertex="1">
                    <mxGeometry width="130" height="130" as="geometry"/>
                </mxCell>
                <mxCell id="H_NpJNuQB-T0yBPUIwQh-69" value="" style="rounded=0;whiteSpace=wrap;html=1;labelBackgroundColor=none;fontSize=14;strokeColor=#000000;strokeWidth=3;fillColor=#999999;gradientColor=#66B2FF;gradientDirection=east;fontColor=#000000;" parent="H_NpJNuQB-T0yBPUIwQh-67" vertex="1">
                    <mxGeometry x="25" y="50" width="35" height="60" as="geometry"/>
                </mxCell>
                <mxCell id="H_NpJNuQB-T0yBPUIwQh-70" value="" style="rounded=0;whiteSpace=wrap;html=1;labelBackgroundColor=none;fontSize=14;strokeColor=#000000;strokeWidth=3;fillColor=#999999;gradientColor=#66B2FF;gradientDirection=east;fontColor=#000000;" parent="H_NpJNuQB-T0yBPUIwQh-67" vertex="1">
                    <mxGeometry x="75" y="50" width="35" height="60" as="geometry"/>
                </mxCell>
                <mxCell id="H_NpJNuQB-T0yBPUIwQh-71" value="" style="rounded=0;whiteSpace=wrap;html=1;labelBackgroundColor=none;fontSize=14;strokeColor=#000000;strokeWidth=3;fillColor=#999999;gradientColor=#66B2FF;gradientDirection=east;fontColor=#000000;" parent="H_NpJNuQB-T0yBPUIwQh-67" vertex="1">
                    <mxGeometry x="25" y="10" width="85" height="30" as="geometry"/>
                </mxCell>
                <mxCell id="H_NpJNuQB-T0yBPUIwQh-72" value="PreViewCard Name" style="text;html=1;strokeColor=none;fillColor=none;align=center;verticalAlign=middle;whiteSpace=wrap;rounded=0;labelBackgroundColor=none;fontSize=14;fontColor=#000000;" parent="H_NpJNuQB-T0yBPUIwQh-73" vertex="1">
                    <mxGeometry x="30" y="10" width="170" height="20" as="geometry"/>
                </mxCell>
                <mxCell id="H_NpJNuQB-T0yBPUIwQh-95" value="" style="html=1;shadow=0;dashed=0;shape=mxgraph.bootstrap.rrect;rSize=5;strokeColor=default;html=1;whiteSpace=wrap;fillColor=#6C767D;fontColor=#ffffff;sketch=0;labelBackgroundColor=none;fontSize=14;labelBorderColor=default;" parent="H_NpJNuQB-T0yBPUIwQh-35" vertex="1">
                    <mxGeometry x="40" y="50" width="222.5" height="30" as="geometry"/>
                </mxCell>
                <mxCell id="H_NpJNuQB-T0yBPUIwQh-96" value="&lt;font color=&quot;#ffffff&quot;&gt;BTN1&lt;/font&gt;" style="strokeColor=inherit;fillColor=inherit;gradientColor=inherit;fontColor=inherit;html=1;shadow=0;dashed=0;shape=mxgraph.bootstrap.leftButton;rSize=5;perimeter=none;whiteSpace=wrap;resizeHeight=1;sketch=0;labelBackgroundColor=none;fontSize=14;" parent="H_NpJNuQB-T0yBPUIwQh-95" vertex="1">
                    <mxGeometry width="60" height="30" relative="1" as="geometry"/>
                </mxCell>
                <mxCell id="H_NpJNuQB-T0yBPUIwQh-97" value="&lt;font color=&quot;#ffffff&quot;&gt;BTN2&lt;/font&gt;" style="strokeColor=inherit;fillColor=inherit;gradientColor=inherit;fontColor=inherit;html=1;shadow=0;dashed=0;perimeter=none;whiteSpace=wrap;resizeHeight=1;sketch=0;labelBackgroundColor=none;fontSize=14;" parent="H_NpJNuQB-T0yBPUIwQh-95" vertex="1">
                    <mxGeometry width="110" height="30" relative="1" as="geometry">
                        <mxPoint x="60" as="offset"/>
                    </mxGeometry>
                </mxCell>
                <mxCell id="H_NpJNuQB-T0yBPUIwQh-98" value="&lt;font color=&quot;#ffffff&quot;&gt;BTN3&lt;/font&gt;" style="strokeColor=inherit;fillColor=inherit;gradientColor=inherit;fontColor=inherit;html=1;shadow=0;dashed=0;shape=mxgraph.bootstrap.rightButton;rSize=5;perimeter=none;whiteSpace=wrap;resizeHeight=1;sketch=0;labelBackgroundColor=none;fontSize=14;" parent="H_NpJNuQB-T0yBPUIwQh-95" vertex="1">
                    <mxGeometry x="1" width="59" height="30" relative="1" as="geometry">
                        <mxPoint x="-60" as="offset"/>
                    </mxGeometry>
                </mxCell>
            </root>
        </mxGraphModel>
    </diagram>
    <diagram id="SmPfj9I6E8YRT7LSqEjZ" name="Страница 2">
        <mxGraphModel dx="1886" dy="1693" grid="1" gridSize="10" guides="1" tooltips="1" connect="1" arrows="1" fold="1" page="0" pageScale="1" pageWidth="827" pageHeight="1169" background="#ffffff" math="0" shadow="0">
            <root>
                <mxCell id="kWHFex6emPiUPYQI3Onq-0"/>
                <mxCell id="kWHFex6emPiUPYQI3Onq-1" style="" parent="kWHFex6emPiUPYQI3Onq-0"/>
                <mxCell id="yOlf1DxYLfiq7W2MdkIP-239" value="&lt;font color=&quot;#000000&quot;&gt;Vertical&lt;/font&gt;" style="rounded=0;whiteSpace=wrap;html=1;labelBackgroundColor=none;fillStyle=auto;fontColor=#FF0000;fillColor=#CCCCCC;opacity=70;" parent="kWHFex6emPiUPYQI3Onq-1" vertex="1">
                    <mxGeometry x="1091.87" y="220" width="368.13" height="720" as="geometry"/>
                </mxCell>
                <mxCell id="yOlf1DxYLfiq7W2MdkIP-237" value="&lt;font color=&quot;#000000&quot;&gt;Vertical&lt;/font&gt;" style="rounded=0;whiteSpace=wrap;html=1;labelBackgroundColor=none;fillStyle=cross-hatch;fontColor=#FF0000;fillColor=#66FFFF;" parent="kWHFex6emPiUPYQI3Onq-1" vertex="1">
                    <mxGeometry x="1210" y="290" width="190" height="240" as="geometry"/>
                </mxCell>
                <mxCell id="yOlf1DxYLfiq7W2MdkIP-236" value="&lt;font color=&quot;#000000&quot;&gt;Horisont&lt;/font&gt;" style="rounded=0;whiteSpace=wrap;html=1;labelBackgroundColor=none;fillStyle=hatch;fontColor=#FF0000;fillColor=#FF33FF;" parent="kWHFex6emPiUPYQI3Onq-1" vertex="1">
                    <mxGeometry x="1238.78" y="330" width="120" height="120" as="geometry"/>
                </mxCell>
                <mxCell id="yOlf1DxYLfiq7W2MdkIP-238" value="&lt;font color=&quot;#000000&quot;&gt;Horisont&lt;/font&gt;" style="rounded=0;whiteSpace=wrap;html=1;labelBackgroundColor=none;fillStyle=hatch;fontColor=#FF0000;fillColor=#FF33FF;" parent="kWHFex6emPiUPYQI3Onq-1" vertex="1">
                    <mxGeometry x="1240" y="460" width="120" height="70" as="geometry"/>
                </mxCell>
                <mxCell id="yOlf1DxYLfiq7W2MdkIP-233" value="&lt;font color=&quot;#000000&quot;&gt;Vertical&lt;/font&gt;" style="rounded=0;whiteSpace=wrap;html=1;labelBackgroundColor=none;fillStyle=cross-hatch;fontColor=#FF0000;fillColor=#66FFFF;movable=1;resizable=1;rotatable=1;deletable=1;editable=1;connectable=1;" parent="kWHFex6emPiUPYQI3Onq-1" vertex="1">
                    <mxGeometry x="1240" y="610" width="160" height="280" as="geometry"/>
                </mxCell>
                <mxCell id="yOlf1DxYLfiq7W2MdkIP-234" value="&lt;font color=&quot;#000000&quot;&gt;Horisont&lt;/font&gt;" style="rounded=0;whiteSpace=wrap;html=1;labelBackgroundColor=none;fillStyle=hatch;fontColor=#FF0000;fillColor=#FF33FF;" parent="kWHFex6emPiUPYQI3Onq-1" vertex="1">
                    <mxGeometry x="1270.38" y="650" width="120" height="120" as="geometry"/>
                </mxCell>
                <mxCell id="kWHFex6emPiUPYQI3Onq-2" value="FullConstruction" style="swimlane;fillColor=#dae8fc;strokeColor=#6c8ebf;glass=0;swimlaneFillColor=#7F00FF;movable=1;resizable=1;rotatable=1;deletable=1;editable=1;connectable=1;fontColor=#000000;rounded=1;" parent="kWHFex6emPiUPYQI3Onq-1" vertex="1">
                    <mxGeometry x="30" y="200" width="310" height="430" as="geometry"/>
                </mxCell>
                <mxCell id="kWHFex6emPiUPYQI3Onq-7" value="VFramesSet" style="swimlane;fillColor=#dae8fc;strokeColor=#6c8ebf;swimlaneFillColor=#6666FF;flipV=0;fontColor=#000000;rounded=1;" parent="kWHFex6emPiUPYQI3Onq-2" vertex="1">
                    <mxGeometry x="60" y="120" width="100" height="310" as="geometry">
                        <mxRectangle x="60" y="120" width="100" height="23" as="alternateBounds"/>
                    </mxGeometry>
                </mxCell>
                <mxCell id="kWHFex6emPiUPYQI3Onq-10" value="Frame" style="swimlane;fontStyle=0;childLayout=stackLayout;horizontal=1;startSize=30;horizontalStack=0;resizeParent=1;resizeParentMax=0;resizeLast=0;collapsible=1;marginBottom=0;fillColor=#f8cecc;strokeColor=#b85450;fontColor=#000000;rounded=1;" parent="kWHFex6emPiUPYQI3Onq-7" vertex="1" collapsed="1">
                    <mxGeometry x="15" y="30" width="70" height="30" as="geometry">
                        <mxRectangle x="40" y="30" width="70" height="120" as="alternateBounds"/>
                    </mxGeometry>
                </mxCell>
                <mxCell id="kWHFex6emPiUPYQI3Onq-11" value="ID" style="text;strokeColor=#82b366;fillColor=#d5e8d4;align=left;verticalAlign=middle;spacingLeft=4;spacingRight=4;overflow=hidden;points=[[0,0.5],[1,0.5]];portConstraint=eastwest;rotatable=0;rounded=1;" parent="kWHFex6emPiUPYQI3Onq-10" vertex="1">
                    <mxGeometry y="30" width="70" height="30" as="geometry"/>
                </mxCell>
                <mxCell id="kWHFex6emPiUPYQI3Onq-12" value="frCode" style="text;strokeColor=#82b366;fillColor=#d5e8d4;align=left;verticalAlign=middle;spacingLeft=4;spacingRight=4;overflow=hidden;points=[[0,0.5],[1,0.5]];portConstraint=eastwest;rotatable=0;rounded=1;" parent="kWHFex6emPiUPYQI3Onq-10" vertex="1">
                    <mxGeometry y="60" width="70" height="30" as="geometry"/>
                </mxCell>
                <mxCell id="kWHFex6emPiUPYQI3Onq-13" value="grid[]" style="text;strokeColor=#82b366;fillColor=#d5e8d4;align=left;verticalAlign=middle;spacingLeft=4;spacingRight=4;overflow=hidden;points=[[0,0.5],[1,0.5]];portConstraint=eastwest;rotatable=0;rounded=1;" parent="kWHFex6emPiUPYQI3Onq-10" vertex="1">
                    <mxGeometry y="90" width="70" height="30" as="geometry"/>
                </mxCell>
                <mxCell id="kWHFex6emPiUPYQI3Onq-62" style="edgeStyle=elbowEdgeStyle;rounded=1;orthogonalLoop=1;jettySize=auto;html=1;exitX=0.5;exitY=1;exitDx=0;exitDy=0;entryX=0.5;entryY=0;entryDx=0;entryDy=0;fontColor=#000000;" parent="kWHFex6emPiUPYQI3Onq-7" source="kWHFex6emPiUPYQI3Onq-34" target="kWHFex6emPiUPYQI3Onq-39" edge="1">
                    <mxGeometry relative="1" as="geometry"/>
                </mxCell>
                <mxCell id="kWHFex6emPiUPYQI3Onq-34" value="Frame" style="swimlane;fontStyle=0;childLayout=stackLayout;horizontal=1;startSize=30;horizontalStack=0;resizeParent=1;resizeParentMax=0;resizeLast=0;collapsible=1;marginBottom=0;fillColor=#f8cecc;strokeColor=#b85450;fontColor=#000000;rounded=1;" parent="kWHFex6emPiUPYQI3Onq-7" vertex="1" collapsed="1">
                    <mxGeometry x="15" y="60" width="70" height="30" as="geometry">
                        <mxRectangle x="40" y="30" width="70" height="120" as="alternateBounds"/>
                    </mxGeometry>
                </mxCell>
                <mxCell id="kWHFex6emPiUPYQI3Onq-35" value="ID" style="text;strokeColor=#82b366;fillColor=#d5e8d4;align=left;verticalAlign=middle;spacingLeft=4;spacingRight=4;overflow=hidden;points=[[0,0.5],[1,0.5]];portConstraint=eastwest;rotatable=0;rounded=1;" parent="kWHFex6emPiUPYQI3Onq-34" vertex="1">
                    <mxGeometry y="30" width="70" height="30" as="geometry"/>
                </mxCell>
                <mxCell id="kWHFex6emPiUPYQI3Onq-36" value="frCode" style="text;strokeColor=#82b366;fillColor=#d5e8d4;align=left;verticalAlign=middle;spacingLeft=4;spacingRight=4;overflow=hidden;points=[[0,0.5],[1,0.5]];portConstraint=eastwest;rotatable=0;rounded=1;" parent="kWHFex6emPiUPYQI3Onq-34" vertex="1">
                    <mxGeometry y="60" width="70" height="30" as="geometry"/>
                </mxCell>
                <mxCell id="kWHFex6emPiUPYQI3Onq-37" value="grid[]" style="text;strokeColor=#82b366;fillColor=#d5e8d4;align=left;verticalAlign=middle;spacingLeft=4;spacingRight=4;overflow=hidden;points=[[0,0.5],[1,0.5]];portConstraint=eastwest;rotatable=0;rounded=1;" parent="kWHFex6emPiUPYQI3Onq-34" vertex="1">
                    <mxGeometry y="90" width="70" height="30" as="geometry"/>
                </mxCell>
                <mxCell id="kWHFex6emPiUPYQI3Onq-39" value="Frame" style="swimlane;fontStyle=0;childLayout=stackLayout;horizontal=1;startSize=30;horizontalStack=0;resizeParent=1;resizeParentMax=0;resizeLast=0;collapsible=1;marginBottom=0;fillColor=#f8cecc;strokeColor=#b85450;fontColor=#000000;rounded=1;" parent="kWHFex6emPiUPYQI3Onq-7" vertex="1">
                    <mxGeometry x="15" y="110" width="70" height="120" as="geometry">
                        <mxRectangle x="40" y="110" width="70" height="30" as="alternateBounds"/>
                    </mxGeometry>
                </mxCell>
                <mxCell id="kWHFex6emPiUPYQI3Onq-40" value="ID" style="text;strokeColor=#82b366;fillColor=#d5e8d4;align=left;verticalAlign=middle;spacingLeft=4;spacingRight=4;overflow=hidden;points=[[0,0.5],[1,0.5]];portConstraint=eastwest;rotatable=0;fontColor=#000000;rounded=1;" parent="kWHFex6emPiUPYQI3Onq-39" vertex="1">
                    <mxGeometry y="30" width="70" height="30" as="geometry"/>
                </mxCell>
                <mxCell id="kWHFex6emPiUPYQI3Onq-41" value="frCode" style="text;strokeColor=#82b366;fillColor=#d5e8d4;align=left;verticalAlign=middle;spacingLeft=4;spacingRight=4;overflow=hidden;points=[[0,0.5],[1,0.5]];portConstraint=eastwest;rotatable=0;fontColor=#000000;rounded=1;" parent="kWHFex6emPiUPYQI3Onq-39" vertex="1">
                    <mxGeometry y="60" width="70" height="30" as="geometry"/>
                </mxCell>
                <mxCell id="kWHFex6emPiUPYQI3Onq-42" value="grid[]" style="text;strokeColor=#82b366;fillColor=#d5e8d4;align=left;verticalAlign=middle;spacingLeft=4;spacingRight=4;overflow=hidden;points=[[0,0.5],[1,0.5]];portConstraint=eastwest;rotatable=0;fontColor=#000000;rounded=1;" parent="kWHFex6emPiUPYQI3Onq-39" vertex="1">
                    <mxGeometry y="90" width="70" height="30" as="geometry"/>
                </mxCell>
                <mxCell id="IPO-ftVUfzBFnNFCNetl-4" value="" style="group;rounded=1;" parent="kWHFex6emPiUPYQI3Onq-7" connectable="0" vertex="1">
                    <mxGeometry y="290" width="20" height="20" as="geometry"/>
                </mxCell>
                <mxCell id="IPO-ftVUfzBFnNFCNetl-0" value="" style="ellipse;whiteSpace=wrap;html=1;aspect=fixed;rounded=1;" parent="IPO-ftVUfzBFnNFCNetl-4" vertex="1">
                    <mxGeometry width="20" height="20" as="geometry"/>
                </mxCell>
                <mxCell id="IPO-ftVUfzBFnNFCNetl-1" value="1" style="text;html=1;strokeColor=none;fillColor=none;align=center;verticalAlign=middle;whiteSpace=wrap;rounded=1;fontSize=10;" parent="IPO-ftVUfzBFnNFCNetl-4" vertex="1">
                    <mxGeometry width="20" height="20" as="geometry"/>
                </mxCell>
                <mxCell id="kWHFex6emPiUPYQI3Onq-8" value="VFramesSet" style="swimlane;fillColor=#dae8fc;strokeColor=#6c8ebf;swimlaneFillColor=#6666FF;fontColor=#000000;rounded=1;" parent="kWHFex6emPiUPYQI3Onq-2" vertex="1">
                    <mxGeometry x="160" y="120" width="100" height="260" as="geometry">
                        <mxRectangle x="160" y="120" width="110" height="30" as="alternateBounds"/>
                    </mxGeometry>
                </mxCell>
                <mxCell id="kWHFex6emPiUPYQI3Onq-29" value="Frame" style="swimlane;fontStyle=0;childLayout=stackLayout;horizontal=1;startSize=30;horizontalStack=0;resizeParent=1;resizeParentMax=0;resizeLast=0;collapsible=1;marginBottom=0;fillColor=#f8cecc;strokeColor=#b85450;fontColor=#000000;rounded=1;" parent="kWHFex6emPiUPYQI3Onq-8" vertex="1">
                    <mxGeometry x="15" y="80" width="70" height="120" as="geometry">
                        <mxRectangle x="40" y="80" width="70" height="30" as="alternateBounds"/>
                    </mxGeometry>
                </mxCell>
                <mxCell id="kWHFex6emPiUPYQI3Onq-30" value="ID" style="text;strokeColor=#82b366;fillColor=#d5e8d4;align=left;verticalAlign=middle;spacingLeft=4;spacingRight=4;overflow=hidden;points=[[0,0.5],[1,0.5]];portConstraint=eastwest;rotatable=0;fontColor=#000000;rounded=1;" parent="kWHFex6emPiUPYQI3Onq-29" vertex="1">
                    <mxGeometry y="30" width="70" height="30" as="geometry"/>
                </mxCell>
                <mxCell id="kWHFex6emPiUPYQI3Onq-31" value="frCode" style="text;strokeColor=#82b366;fillColor=#d5e8d4;align=left;verticalAlign=middle;spacingLeft=4;spacingRight=4;overflow=hidden;points=[[0,0.5],[1,0.5]];portConstraint=eastwest;rotatable=0;fontColor=#000000;rounded=1;" parent="kWHFex6emPiUPYQI3Onq-29" vertex="1">
                    <mxGeometry y="60" width="70" height="30" as="geometry"/>
                </mxCell>
                <mxCell id="kWHFex6emPiUPYQI3Onq-32" value="grid[]" style="text;strokeColor=#82b366;fillColor=#d5e8d4;align=left;verticalAlign=middle;spacingLeft=4;spacingRight=4;overflow=hidden;points=[[0,0.5],[1,0.5]];portConstraint=eastwest;rotatable=0;fontColor=#000000;rounded=1;" parent="kWHFex6emPiUPYQI3Onq-29" vertex="1">
                    <mxGeometry y="90" width="70" height="30" as="geometry"/>
                </mxCell>
                <mxCell id="kWHFex6emPiUPYQI3Onq-61" style="edgeStyle=elbowEdgeStyle;rounded=1;orthogonalLoop=1;jettySize=auto;html=1;exitX=0.5;exitY=1;exitDx=0;exitDy=0;entryX=0.5;entryY=0;entryDx=0;entryDy=0;fontColor=#000000;" parent="kWHFex6emPiUPYQI3Onq-8" source="kWHFex6emPiUPYQI3Onq-24" target="kWHFex6emPiUPYQI3Onq-29" edge="1">
                    <mxGeometry relative="1" as="geometry"/>
                </mxCell>
                <mxCell id="kWHFex6emPiUPYQI3Onq-24" value="Frame" style="swimlane;fontStyle=0;childLayout=stackLayout;horizontal=1;startSize=30;horizontalStack=0;resizeParent=1;resizeParentMax=0;resizeLast=0;collapsible=1;marginBottom=0;fillColor=#f8cecc;strokeColor=#b85450;fontColor=#000000;rounded=1;" parent="kWHFex6emPiUPYQI3Onq-8" vertex="1" collapsed="1">
                    <mxGeometry x="15" y="30" width="70" height="30" as="geometry">
                        <mxRectangle x="40" y="30" width="70" height="120" as="alternateBounds"/>
                    </mxGeometry>
                </mxCell>
                <mxCell id="kWHFex6emPiUPYQI3Onq-25" value="ID" style="text;strokeColor=#82b366;fillColor=#d5e8d4;align=left;verticalAlign=middle;spacingLeft=4;spacingRight=4;overflow=hidden;points=[[0,0.5],[1,0.5]];portConstraint=eastwest;rotatable=0;rounded=1;" parent="kWHFex6emPiUPYQI3Onq-24" vertex="1">
                    <mxGeometry y="30" width="70" height="30" as="geometry"/>
                </mxCell>
                <mxCell id="kWHFex6emPiUPYQI3Onq-26" value="frCode" style="text;strokeColor=#82b366;fillColor=#d5e8d4;align=left;verticalAlign=middle;spacingLeft=4;spacingRight=4;overflow=hidden;points=[[0,0.5],[1,0.5]];portConstraint=eastwest;rotatable=0;rounded=1;" parent="kWHFex6emPiUPYQI3Onq-24" vertex="1">
                    <mxGeometry y="60" width="70" height="30" as="geometry"/>
                </mxCell>
                <mxCell id="kWHFex6emPiUPYQI3Onq-27" value="grid[]" style="text;strokeColor=#82b366;fillColor=#d5e8d4;align=left;verticalAlign=middle;spacingLeft=4;spacingRight=4;overflow=hidden;points=[[0,0.5],[1,0.5]];portConstraint=eastwest;rotatable=0;rounded=1;" parent="kWHFex6emPiUPYQI3Onq-24" vertex="1">
                    <mxGeometry y="90" width="70" height="30" as="geometry"/>
                </mxCell>
                <mxCell id="IPO-ftVUfzBFnNFCNetl-7" value="" style="group;rounded=1;" parent="kWHFex6emPiUPYQI3Onq-8" connectable="0" vertex="1">
                    <mxGeometry y="240" width="20" height="20" as="geometry"/>
                </mxCell>
                <mxCell id="IPO-ftVUfzBFnNFCNetl-8" value="" style="ellipse;whiteSpace=wrap;html=1;aspect=fixed;rounded=1;" parent="IPO-ftVUfzBFnNFCNetl-7" vertex="1">
                    <mxGeometry width="20" height="20" as="geometry"/>
                </mxCell>
                <mxCell id="IPO-ftVUfzBFnNFCNetl-9" value="2" style="text;html=1;strokeColor=none;fillColor=none;align=center;verticalAlign=middle;whiteSpace=wrap;rounded=1;fontSize=10;" parent="IPO-ftVUfzBFnNFCNetl-7" vertex="1">
                    <mxGeometry width="20" height="20" as="geometry"/>
                </mxCell>
                <mxCell id="kBBUncJP_tdqao1h_2B7-0" style="edgeStyle=elbowEdgeStyle;html=1;exitX=1;exitY=0.5;exitDx=0;exitDy=0;entryX=-0.003;entryY=0.035;entryDx=0;entryDy=0;entryPerimeter=0;labelBackgroundColor=#000000;fontColor=#000000;strokeColor=#000000;rounded=1;" parent="kWHFex6emPiUPYQI3Onq-1" source="kWHFex6emPiUPYQI3Onq-44" target="kWHFex6emPiUPYQI3Onq-2" edge="1">
                    <mxGeometry relative="1" as="geometry"/>
                </mxCell>
                <mxCell id="kBBUncJP_tdqao1h_2B7-1" style="edgeStyle=elbowEdgeStyle;html=1;exitX=1;exitY=0.5;exitDx=0;exitDy=0;entryX=-0.01;entryY=0.035;entryDx=0;entryDy=0;entryPerimeter=0;labelBackgroundColor=#000000;fontColor=#000000;strokeColor=#000000;rounded=1;" parent="kWHFex6emPiUPYQI3Onq-1" source="kWHFex6emPiUPYQI3Onq-49" target="kWHFex6emPiUPYQI3Onq-7" edge="1">
                    <mxGeometry relative="1" as="geometry"/>
                </mxCell>
                <mxCell id="kBBUncJP_tdqao1h_2B7-2" style="edgeStyle=elbowEdgeStyle;html=1;exitX=1.012;exitY=0.158;exitDx=0;exitDy=0;entryX=0.029;entryY=0.142;entryDx=0;entryDy=0;entryPerimeter=0;labelBackgroundColor=#000000;fontColor=#000000;strokeColor=#000000;exitPerimeter=0;rounded=1;" parent="kWHFex6emPiUPYQI3Onq-1" source="kWHFex6emPiUPYQI3Onq-55" target="kWHFex6emPiUPYQI3Onq-39" edge="1">
                    <mxGeometry relative="1" as="geometry"/>
                </mxCell>
                <mxCell id="IPO-ftVUfzBFnNFCNetl-11" value="Frame" style="swimlane;fontStyle=0;childLayout=stackLayout;horizontal=1;startSize=30;horizontalStack=0;resizeParent=1;resizeParentMax=0;resizeLast=0;collapsible=1;marginBottom=0;fillColor=#f8cecc;strokeColor=#b85450;fontColor=#000000;rounded=1;" parent="kWHFex6emPiUPYQI3Onq-1" vertex="1">
                    <mxGeometry x="-310" y="440" width="70" height="120" as="geometry">
                        <mxRectangle x="40" y="110" width="70" height="30" as="alternateBounds"/>
                    </mxGeometry>
                </mxCell>
                <mxCell id="IPO-ftVUfzBFnNFCNetl-12" value="ID" style="text;strokeColor=#82b366;fillColor=#d5e8d4;align=left;verticalAlign=middle;spacingLeft=4;spacingRight=4;overflow=hidden;points=[[0,0.5],[1,0.5]];portConstraint=eastwest;rotatable=0;fontColor=#000000;rounded=1;" parent="IPO-ftVUfzBFnNFCNetl-11" vertex="1">
                    <mxGeometry y="30" width="70" height="30" as="geometry"/>
                </mxCell>
                <mxCell id="IPO-ftVUfzBFnNFCNetl-13" value="frCode" style="text;strokeColor=#82b366;fillColor=#d5e8d4;align=left;verticalAlign=middle;spacingLeft=4;spacingRight=4;overflow=hidden;points=[[0,0.5],[1,0.5]];portConstraint=eastwest;rotatable=0;fontColor=#000000;rounded=1;" parent="IPO-ftVUfzBFnNFCNetl-11" vertex="1">
                    <mxGeometry y="60" width="70" height="30" as="geometry"/>
                </mxCell>
                <mxCell id="IPO-ftVUfzBFnNFCNetl-14" value="grid[]" style="text;strokeColor=#82b366;fillColor=#d5e8d4;align=left;verticalAlign=middle;spacingLeft=4;spacingRight=4;overflow=hidden;points=[[0,0.5],[1,0.5]];portConstraint=eastwest;rotatable=0;fontColor=#000000;rounded=1;" parent="IPO-ftVUfzBFnNFCNetl-11" vertex="1">
                    <mxGeometry y="90" width="70" height="30" as="geometry"/>
                </mxCell>
                <mxCell id="IPO-ftVUfzBFnNFCNetl-15" style="edgeStyle=orthogonalEdgeStyle;rounded=1;orthogonalLoop=1;jettySize=auto;html=1;exitX=0;exitY=0.5;exitDx=0;exitDy=0;entryX=1;entryY=0.5;entryDx=0;entryDy=0;fontSize=10;" parent="kWHFex6emPiUPYQI3Onq-1" source="kWHFex6emPiUPYQI3Onq-56" target="IPO-ftVUfzBFnNFCNetl-12" edge="1">
                    <mxGeometry relative="1" as="geometry"/>
                </mxCell>
                <mxCell id="IPO-ftVUfzBFnNFCNetl-16" style="edgeStyle=orthogonalEdgeStyle;rounded=1;orthogonalLoop=1;jettySize=auto;html=1;exitX=0;exitY=0.5;exitDx=0;exitDy=0;entryX=1;entryY=0.5;entryDx=0;entryDy=0;fontSize=10;" parent="kWHFex6emPiUPYQI3Onq-1" source="kWHFex6emPiUPYQI3Onq-57" target="IPO-ftVUfzBFnNFCNetl-13" edge="1">
                    <mxGeometry relative="1" as="geometry"/>
                </mxCell>
                <mxCell id="IPO-ftVUfzBFnNFCNetl-17" style="edgeStyle=orthogonalEdgeStyle;rounded=1;orthogonalLoop=1;jettySize=auto;html=1;exitX=0;exitY=0.5;exitDx=0;exitDy=0;entryX=1;entryY=0.5;entryDx=0;entryDy=0;fontSize=10;" parent="kWHFex6emPiUPYQI3Onq-1" source="kWHFex6emPiUPYQI3Onq-58" target="IPO-ftVUfzBFnNFCNetl-14" edge="1">
                    <mxGeometry relative="1" as="geometry"/>
                </mxCell>
                <mxCell id="yOlf1DxYLfiq7W2MdkIP-18" value="CANVAS" style="swimlane;fillColor=#dae8fc;strokeColor=#6c8ebf;glass=0;swimlaneFillColor=none;movable=0;resizable=0;rotatable=0;deletable=0;editable=0;connectable=0;fontColor=#000000;rounded=1;" parent="kWHFex6emPiUPYQI3Onq-1" vertex="1">
                    <mxGeometry x="580" y="170" width="350" height="580" as="geometry"/>
                </mxCell>
                <mxCell id="yOlf1DxYLfiq7W2MdkIP-224" value="" style="group;movable=0;resizable=0;rotatable=0;deletable=0;editable=0;connectable=0;" parent="yOlf1DxYLfiq7W2MdkIP-18" connectable="0" vertex="1">
                    <mxGeometry x="70" y="30" width="90" height="210" as="geometry"/>
                </mxCell>
                <mxCell id="yOlf1DxYLfiq7W2MdkIP-223" value="" style="group;movable=0;resizable=0;rotatable=0;deletable=0;editable=0;connectable=0;" parent="yOlf1DxYLfiq7W2MdkIP-18" connectable="0" vertex="1">
                    <mxGeometry x="160" y="30" width="140" height="270" as="geometry"/>
                </mxCell>
                <mxCell id="yOlf1DxYLfiq7W2MdkIP-49" value="" style="rounded=0;whiteSpace=wrap;html=1;fontSize=10;fillStyle=dashed;container=0;movable=1;resizable=1;rotatable=1;deletable=1;editable=1;connectable=1;strokeWidth=2;strokeColor=#99CCFF;fillColor=#00FF00;" parent="yOlf1DxYLfiq7W2MdkIP-223" vertex="1">
                    <mxGeometry x="-98.9" y="23.64" width="238.9" height="246.36" as="geometry"/>
                </mxCell>
                <mxCell id="yOlf1DxYLfiq7W2MdkIP-219" value="" style="rounded=0;whiteSpace=wrap;html=1;labelBackgroundColor=none;fontColor=#FF0000;fillColor=#007FFF;fillStyle=cross-hatch;" parent="yOlf1DxYLfiq7W2MdkIP-223" vertex="1">
                    <mxGeometry x="-60" y="40" width="90" height="210" as="geometry"/>
                </mxCell>
                <mxCell id="yOlf1DxYLfiq7W2MdkIP-85" value="" style="group;rounded=1;" parent="yOlf1DxYLfiq7W2MdkIP-223" connectable="0" vertex="1">
                    <mxGeometry x="-59.999999999999986" y="40.000000000000014" width="20" height="20" as="geometry"/>
                </mxCell>
                <mxCell id="yOlf1DxYLfiq7W2MdkIP-86" value="" style="ellipse;whiteSpace=wrap;html=1;aspect=fixed;rounded=1;" parent="yOlf1DxYLfiq7W2MdkIP-85" vertex="1">
                    <mxGeometry width="20" height="20" as="geometry"/>
                </mxCell>
                <mxCell id="yOlf1DxYLfiq7W2MdkIP-87" value="1" style="text;html=1;strokeColor=none;fillColor=none;align=center;verticalAlign=middle;whiteSpace=wrap;rounded=1;fontSize=10;" parent="yOlf1DxYLfiq7W2MdkIP-85" vertex="1">
                    <mxGeometry width="20" height="20" as="geometry"/>
                </mxCell>
                <mxCell id="yOlf1DxYLfiq7W2MdkIP-227" value="" style="group" parent="yOlf1DxYLfiq7W2MdkIP-223" connectable="0" vertex="1">
                    <mxGeometry x="-60" y="70" width="90" height="144.05" as="geometry"/>
                </mxCell>
                <mxCell id="yOlf1DxYLfiq7W2MdkIP-9" value="" style="whiteSpace=wrap;html=1;labelBackgroundColor=none;fontSize=14;strokeWidth=3;gradientColor=none;gradientDirection=east;fontColor=#000000;movable=1;resizable=1;rotatable=1;deletable=1;editable=1;connectable=1;container=0;rounded=1;arcSize=13;" parent="yOlf1DxYLfiq7W2MdkIP-227" vertex="1">
                    <mxGeometry width="90" height="144.05" as="geometry"/>
                </mxCell>
                <mxCell id="yOlf1DxYLfiq7W2MdkIP-11" value="" style="rounded=1;whiteSpace=wrap;html=1;labelBackgroundColor=none;fontSize=14;strokeColor=#000000;strokeWidth=3;fillColor=#999999;gradientColor=#66B2FF;gradientDirection=east;fontColor=#000000;movable=1;resizable=1;rotatable=1;deletable=1;editable=1;connectable=1;container=0;" parent="yOlf1DxYLfiq7W2MdkIP-227" vertex="1">
                    <mxGeometry x="50.400000000000006" y="40" width="32.4" height="97.54" as="geometry"/>
                </mxCell>
                <mxCell id="yOlf1DxYLfiq7W2MdkIP-220" value="" style="rounded=0;whiteSpace=wrap;html=1;labelBackgroundColor=none;fontColor=#FF0000;fillColor=#007FFF;fillStyle=cross-hatch;movable=1;resizable=1;rotatable=1;deletable=1;editable=1;connectable=1;" parent="yOlf1DxYLfiq7W2MdkIP-223" vertex="1">
                    <mxGeometry x="30" y="40" width="70" height="210" as="geometry"/>
                </mxCell>
                <mxCell id="yOlf1DxYLfiq7W2MdkIP-91" value="" style="group;rounded=1;fillColor=none;" parent="yOlf1DxYLfiq7W2MdkIP-223" connectable="0" vertex="1">
                    <mxGeometry x="30.00000000000003" y="40.00000000000003" width="20" height="20" as="geometry"/>
                </mxCell>
                <mxCell id="yOlf1DxYLfiq7W2MdkIP-92" value="" style="ellipse;whiteSpace=wrap;html=1;aspect=fixed;rounded=1;" parent="yOlf1DxYLfiq7W2MdkIP-91" vertex="1">
                    <mxGeometry width="20" height="20" as="geometry"/>
                </mxCell>
                <mxCell id="yOlf1DxYLfiq7W2MdkIP-93" value="2" style="text;html=1;strokeColor=none;fillColor=none;align=center;verticalAlign=middle;whiteSpace=wrap;rounded=1;fontSize=10;" parent="yOlf1DxYLfiq7W2MdkIP-91" vertex="1">
                    <mxGeometry width="20" height="20" as="geometry"/>
                </mxCell>
                <mxCell id="yOlf1DxYLfiq7W2MdkIP-82" value="" style="group;rounded=1;" parent="yOlf1DxYLfiq7W2MdkIP-223" connectable="0" vertex="1">
                    <mxGeometry x="30" y="110" width="70.00000000000001" height="104.04545454545455" as="geometry"/>
                </mxCell>
                <mxCell id="yOlf1DxYLfiq7W2MdkIP-15" value="" style="whiteSpace=wrap;html=1;labelBackgroundColor=none;fontSize=14;strokeWidth=3;gradientColor=none;gradientDirection=east;fontColor=#000000;movable=1;resizable=1;rotatable=1;deletable=1;editable=1;connectable=1;container=0;rounded=1;" parent="yOlf1DxYLfiq7W2MdkIP-82" vertex="1">
                    <mxGeometry width="70.00000000000001" height="104.04545454545455" as="geometry"/>
                </mxCell>
                <mxCell id="yOlf1DxYLfiq7W2MdkIP-16" value="" style="rounded=1;whiteSpace=wrap;html=1;labelBackgroundColor=none;fontSize=14;strokeColor=#000000;strokeWidth=3;fillColor=#999999;gradientColor=#66B2FF;gradientDirection=east;fontColor=#000000;movable=1;resizable=1;rotatable=1;deletable=1;editable=1;connectable=1;container=0;" parent="yOlf1DxYLfiq7W2MdkIP-82" vertex="1">
                    <mxGeometry x="5.599999999999994" y="8.323636363636368" width="25.200000000000003" height="87.39818181818183" as="geometry"/>
                </mxCell>
                <mxCell id="yOlf1DxYLfiq7W2MdkIP-17" value="" style="rounded=1;whiteSpace=wrap;html=1;labelBackgroundColor=none;fontSize=14;strokeColor=#000000;strokeWidth=3;fillColor=#999999;gradientColor=#66B2FF;gradientDirection=east;fontColor=#000000;movable=1;resizable=1;rotatable=1;deletable=1;editable=1;connectable=1;container=0;" parent="yOlf1DxYLfiq7W2MdkIP-82" vertex="1">
                    <mxGeometry x="39.20000000000002" y="8.323636363636368" width="25.200000000000003" height="87.39818181818183" as="geometry"/>
                </mxCell>
                <mxCell id="yOlf1DxYLfiq7W2MdkIP-80" value="4" style="text;html=1;strokeColor=none;fillColor=none;align=center;verticalAlign=middle;whiteSpace=wrap;rounded=1;fillStyle=solid;fontSize=10;" parent="yOlf1DxYLfiq7W2MdkIP-82" vertex="1">
                    <mxGeometry x="13" y="39.829999999999984" width="10.4" height="24.39" as="geometry"/>
                </mxCell>
                <mxCell id="yOlf1DxYLfiq7W2MdkIP-81" value="5" style="text;html=1;strokeColor=none;fillColor=none;align=center;verticalAlign=middle;whiteSpace=wrap;rounded=1;fillStyle=solid;fontSize=10;" parent="yOlf1DxYLfiq7W2MdkIP-82" vertex="1">
                    <mxGeometry x="46.60000000000002" y="47.639999999999986" width="10.4" height="8.77" as="geometry"/>
                </mxCell>
                <mxCell id="yOlf1DxYLfiq7W2MdkIP-218" value="&lt;font style=&quot;&quot; color=&quot;#ff0000&quot;&gt;0&lt;/font&gt;" style="text;html=1;strokeColor=#9673a6;fillColor=#e1d5e7;align=center;verticalAlign=middle;whiteSpace=wrap;rounded=0;fontSize=10;" parent="yOlf1DxYLfiq7W2MdkIP-82" vertex="1">
                    <mxGeometry x="5.60000000000009" y="75.71999999999997" width="20" height="20" as="geometry"/>
                </mxCell>
                <mxCell id="yOlf1DxYLfiq7W2MdkIP-69" value="" style="group;rounded=1;" parent="yOlf1DxYLfiq7W2MdkIP-223" connectable="0" vertex="1">
                    <mxGeometry x="30" y="70" width="70" height="40" as="geometry"/>
                </mxCell>
                <mxCell id="yOlf1DxYLfiq7W2MdkIP-66" value="" style="whiteSpace=wrap;html=1;labelBackgroundColor=none;fontSize=14;strokeWidth=3;gradientColor=none;gradientDirection=east;fontColor=#000000;movable=1;resizable=1;rotatable=1;deletable=1;editable=1;connectable=1;container=0;rounded=1;" parent="yOlf1DxYLfiq7W2MdkIP-69" vertex="1">
                    <mxGeometry width="70" height="40" as="geometry"/>
                </mxCell>
                <mxCell id="yOlf1DxYLfiq7W2MdkIP-67" value="" style="rounded=1;whiteSpace=wrap;html=1;labelBackgroundColor=none;fontSize=14;strokeColor=#000000;strokeWidth=3;fillColor=#999999;gradientColor=#66B2FF;gradientDirection=east;fontColor=#000000;movable=1;resizable=1;rotatable=1;deletable=1;editable=1;connectable=1;container=0;" parent="yOlf1DxYLfiq7W2MdkIP-69" vertex="1">
                    <mxGeometry x="7.8100000000000005" y="8.34" width="54.37" height="23.33" as="geometry"/>
                </mxCell>
                <mxCell id="yOlf1DxYLfiq7W2MdkIP-79" value="6" style="text;html=1;strokeColor=none;fillColor=none;align=center;verticalAlign=middle;whiteSpace=wrap;rounded=1;fillStyle=solid;fontSize=10;container=0;" parent="yOlf1DxYLfiq7W2MdkIP-69" vertex="1">
                    <mxGeometry x="29.800000000000068" y="15.620000000000005" width="10.4" height="8.77" as="geometry"/>
                </mxCell>
                <mxCell id="yOlf1DxYLfiq7W2MdkIP-213" value="" style="group;rounded=1;" parent="yOlf1DxYLfiq7W2MdkIP-69" connectable="0" vertex="1">
                    <mxGeometry x="7.810000000000059" y="9.999999999999972" width="20" height="20" as="geometry"/>
                </mxCell>
                <mxCell id="yOlf1DxYLfiq7W2MdkIP-214" value="" style="ellipse;whiteSpace=wrap;html=1;aspect=fixed;rounded=1;" parent="yOlf1DxYLfiq7W2MdkIP-213" vertex="1">
                    <mxGeometry width="20" height="20" as="geometry"/>
                </mxCell>
                <mxCell id="yOlf1DxYLfiq7W2MdkIP-215" value="&lt;font style=&quot;&quot; color=&quot;#ff0000&quot;&gt;0&lt;/font&gt;" style="text;html=1;strokeColor=#9673a6;fillColor=#e1d5e7;align=center;verticalAlign=middle;whiteSpace=wrap;rounded=0;fontSize=10;" parent="yOlf1DxYLfiq7W2MdkIP-213" vertex="1">
                    <mxGeometry width="20" height="20" as="geometry"/>
                </mxCell>
                <mxCell id="yOlf1DxYLfiq7W2MdkIP-10" value="" style="rounded=1;whiteSpace=wrap;html=1;labelBackgroundColor=none;fontSize=14;strokeColor=#000000;strokeWidth=3;fillColor=#999999;gradientColor=#66B2FF;gradientDirection=east;fontColor=#000000;movable=1;resizable=1;rotatable=1;deletable=1;editable=1;connectable=1;container=0;" parent="yOlf1DxYLfiq7W2MdkIP-223" vertex="1">
                    <mxGeometry x="-52.8" y="110" width="32.4" height="97.54" as="geometry"/>
                </mxCell>
                <mxCell id="yOlf1DxYLfiq7W2MdkIP-12" value="" style="rounded=1;whiteSpace=wrap;html=1;labelBackgroundColor=none;fontSize=14;strokeColor=#000000;strokeWidth=3;fillColor=#999999;gradientColor=#66B2FF;gradientDirection=east;fontColor=#000000;movable=1;resizable=1;rotatable=1;deletable=1;editable=1;connectable=1;container=0;" parent="yOlf1DxYLfiq7W2MdkIP-223" vertex="1">
                    <mxGeometry x="-52.8" y="80.0028409090909" width="75.60000000000001" height="19.50852272727273" as="geometry"/>
                </mxCell>
                <mxCell id="yOlf1DxYLfiq7W2MdkIP-77" value="2" style="text;html=1;strokeColor=none;fillColor=none;align=center;verticalAlign=middle;whiteSpace=wrap;rounded=1;fillStyle=solid;fontSize=10;" parent="yOlf1DxYLfiq7W2MdkIP-223" vertex="1">
                    <mxGeometry x="-10.599999999999994" y="151.89" width="33.4" height="13.77" as="geometry"/>
                </mxCell>
                <mxCell id="yOlf1DxYLfiq7W2MdkIP-75" value="1" style="text;html=1;strokeColor=none;fillColor=none;align=center;verticalAlign=middle;whiteSpace=wrap;rounded=1;fillStyle=solid;fontSize=10;" parent="yOlf1DxYLfiq7W2MdkIP-223" vertex="1">
                    <mxGeometry x="-41.8" y="154.39" width="10.4" height="8.77" as="geometry"/>
                </mxCell>
                <mxCell id="yOlf1DxYLfiq7W2MdkIP-78" value="3" style="text;html=1;strokeColor=none;fillColor=none;align=center;verticalAlign=middle;whiteSpace=wrap;rounded=1;fillStyle=solid;fontSize=10;" parent="yOlf1DxYLfiq7W2MdkIP-223" vertex="1">
                    <mxGeometry x="-20" y="85.37" width="10.4" height="8.77" as="geometry"/>
                </mxCell>
                <mxCell id="yOlf1DxYLfiq7W2MdkIP-210" value="" style="group;rounded=1;" parent="yOlf1DxYLfiq7W2MdkIP-223" connectable="0" vertex="1">
                    <mxGeometry x="-52.799999999999955" y="79.50999999999996" width="20" height="20" as="geometry"/>
                </mxCell>
                <mxCell id="yOlf1DxYLfiq7W2MdkIP-211" value="" style="ellipse;whiteSpace=wrap;html=1;aspect=fixed;rounded=1;" parent="yOlf1DxYLfiq7W2MdkIP-210" vertex="1">
                    <mxGeometry width="20" height="20" as="geometry"/>
                </mxCell>
                <mxCell id="yOlf1DxYLfiq7W2MdkIP-212" value="&lt;font style=&quot;&quot; color=&quot;#ff0000&quot;&gt;1&lt;/font&gt;" style="text;html=1;strokeColor=#9673a6;fillColor=#e1d5e7;align=center;verticalAlign=middle;whiteSpace=wrap;rounded=0;fontSize=10;" parent="yOlf1DxYLfiq7W2MdkIP-210" vertex="1">
                    <mxGeometry width="20" height="20" as="geometry"/>
                </mxCell>
                <mxCell id="yOlf1DxYLfiq7W2MdkIP-209" value="&lt;font style=&quot;&quot; color=&quot;#ff0000&quot;&gt;0&lt;/font&gt;" style="text;html=1;strokeColor=#9673a6;fillColor=#e1d5e7;align=center;verticalAlign=middle;whiteSpace=wrap;rounded=0;fontSize=10;" parent="yOlf1DxYLfiq7W2MdkIP-223" vertex="1">
                    <mxGeometry x="-52.799999999999955" y="187.53999999999996" width="20" height="20" as="geometry"/>
                </mxCell>
                <mxCell id="IPO-ftVUfzBFnNFCNetl-23" value="FrameRow" style="swimlane;fontStyle=0;childLayout=stackLayout;horizontal=1;startSize=30;horizontalStack=0;resizeParent=1;resizeParentMax=0;resizeLast=0;collapsible=1;marginBottom=0;fillColor=#f8cecc;strokeColor=#b85450;fontColor=#000000;rounded=1;" parent="kWHFex6emPiUPYQI3Onq-1" vertex="1">
                    <mxGeometry x="-480" y="360" width="70" height="120" as="geometry">
                        <mxRectangle x="40" y="110" width="70" height="30" as="alternateBounds"/>
                    </mxGeometry>
                </mxCell>
                <mxCell id="IPO-ftVUfzBFnNFCNetl-24" value="ID" style="text;strokeColor=#82b366;fillColor=#d5e8d4;align=left;verticalAlign=middle;spacingLeft=4;spacingRight=4;overflow=hidden;points=[[0,0.5],[1,0.5]];portConstraint=eastwest;rotatable=0;fontColor=#000000;rounded=1;" parent="IPO-ftVUfzBFnNFCNetl-23" vertex="1">
                    <mxGeometry y="30" width="70" height="30" as="geometry"/>
                </mxCell>
                <mxCell id="IPO-ftVUfzBFnNFCNetl-25" value="row_id" style="text;strokeColor=#82b366;fillColor=#d5e8d4;align=left;verticalAlign=middle;spacingLeft=4;spacingRight=4;overflow=hidden;points=[[0,0.5],[1,0.5]];portConstraint=eastwest;rotatable=0;fontColor=#000000;rounded=1;" parent="IPO-ftVUfzBFnNFCNetl-23" vertex="1">
                    <mxGeometry y="60" width="70" height="30" as="geometry"/>
                </mxCell>
                <mxCell id="IPO-ftVUfzBFnNFCNetl-26" value="cols" style="text;strokeColor=#82b366;fillColor=#d5e8d4;align=left;verticalAlign=middle;spacingLeft=4;spacingRight=4;overflow=hidden;points=[[0,0.5],[1,0.5]];portConstraint=eastwest;rotatable=0;fontColor=#000000;rounded=1;" parent="IPO-ftVUfzBFnNFCNetl-23" vertex="1">
                    <mxGeometry y="90" width="70" height="30" as="geometry"/>
                </mxCell>
                <mxCell id="yOlf1DxYLfiq7W2MdkIP-152" value="FullConstruct" style="ellipse" parent="kWHFex6emPiUPYQI3Onq-1" vertex="1">
                    <mxGeometry x="960" y="170" width="93.55140186915888" height="70" as="geometry"/>
                </mxCell>
                <mxCell id="yOlf1DxYLfiq7W2MdkIP-205" style="edgeStyle=orthogonalEdgeStyle;rounded=0;orthogonalLoop=1;jettySize=auto;html=1;exitX=0.25;exitY=1;exitDx=0;exitDy=0;entryX=0;entryY=0.5;entryDx=0;entryDy=0;" parent="kWHFex6emPiUPYQI3Onq-1" source="yOlf1DxYLfiq7W2MdkIP-153" target="yOlf1DxYLfiq7W2MdkIP-201" edge="1">
                    <mxGeometry relative="1" as="geometry">
                        <mxPoint x="1120.3333333333335" y="590" as="targetPoint"/>
                    </mxGeometry>
                </mxCell>
                <mxCell id="yOlf1DxYLfiq7W2MdkIP-206" style="edgeStyle=orthogonalEdgeStyle;rounded=0;orthogonalLoop=1;jettySize=auto;html=1;exitX=0.25;exitY=1;exitDx=0;exitDy=0;entryX=0;entryY=0.5;entryDx=0;entryDy=0;" parent="kWHFex6emPiUPYQI3Onq-1" source="yOlf1DxYLfiq7W2MdkIP-153" target="yOlf1DxYLfiq7W2MdkIP-155" edge="1">
                    <mxGeometry relative="1" as="geometry">
                        <mxPoint x="1120.3333333333335" y="280" as="targetPoint"/>
                    </mxGeometry>
                </mxCell>
                <mxCell id="yOlf1DxYLfiq7W2MdkIP-153" value="VertFramesSets" style="rounded=1;fillColor=#66FF66;" parent="kWHFex6emPiUPYQI3Onq-1" vertex="1">
                    <mxGeometry x="1090" y="190" width="121.87" height="30" as="geometry"/>
                </mxCell>
                <mxCell id="yOlf1DxYLfiq7W2MdkIP-154" value="" style="curved=1;noEdgeStyle=1;orthogonal=1;" parent="kWHFex6emPiUPYQI3Onq-1" source="yOlf1DxYLfiq7W2MdkIP-152" target="yOlf1DxYLfiq7W2MdkIP-153" edge="1">
                    <mxGeometry relative="1" as="geometry">
                        <Array as="points">
                            <mxPoint x="1062.1869158878503" y="205"/>
                        </Array>
                    </mxGeometry>
                </mxCell>
                <mxCell id="yOlf1DxYLfiq7W2MdkIP-202" style="edgeStyle=orthogonalEdgeStyle;rounded=0;orthogonalLoop=1;jettySize=auto;html=1;exitX=0.25;exitY=1;exitDx=0;exitDy=0;entryX=0;entryY=0.5;entryDx=0;entryDy=0;" parent="kWHFex6emPiUPYQI3Onq-1" source="yOlf1DxYLfiq7W2MdkIP-155" target="yOlf1DxYLfiq7W2MdkIP-157" edge="1">
                    <mxGeometry x="-0.9957" y="-10" relative="1" as="geometry">
                        <Array as="points">
                            <mxPoint x="1190" y="280"/>
                            <mxPoint x="1190" y="305"/>
                        </Array>
                        <mxPoint as="offset"/>
                    </mxGeometry>
                </mxCell>
                <mxCell id="yOlf1DxYLfiq7W2MdkIP-155" value="FramesSet__1" style="rounded=1;fillColor=#999999;" parent="kWHFex6emPiUPYQI3Onq-1" vertex="1">
                    <mxGeometry x="1170" y="250" width="130" height="30" as="geometry"/>
                </mxCell>
                <mxCell id="yOlf1DxYLfiq7W2MdkIP-177" style="edgeStyle=orthogonalEdgeStyle;rounded=0;orthogonalLoop=1;jettySize=auto;html=1;exitX=0.25;exitY=1;exitDx=0;exitDy=0;entryX=0;entryY=0.5;entryDx=0;entryDy=0;" parent="kWHFex6emPiUPYQI3Onq-1" source="yOlf1DxYLfiq7W2MdkIP-157" target="yOlf1DxYLfiq7W2MdkIP-159" edge="1">
                    <mxGeometry relative="1" as="geometry">
                        <Array as="points">
                            <mxPoint x="1220" y="320"/>
                            <mxPoint x="1220" y="345"/>
                        </Array>
                    </mxGeometry>
                </mxCell>
                <mxCell id="yOlf1DxYLfiq7W2MdkIP-178" style="edgeStyle=orthogonalEdgeStyle;rounded=0;orthogonalLoop=1;jettySize=auto;html=1;exitX=0.25;exitY=1;exitDx=0;exitDy=0;entryX=0;entryY=0.5;entryDx=0;entryDy=0;" parent="kWHFex6emPiUPYQI3Onq-1" source="yOlf1DxYLfiq7W2MdkIP-157" target="yOlf1DxYLfiq7W2MdkIP-167" edge="1">
                    <mxGeometry relative="1" as="geometry">
                        <Array as="points">
                            <mxPoint x="1220" y="320"/>
                            <mxPoint x="1220" y="475"/>
                        </Array>
                    </mxGeometry>
                </mxCell>
                <mxCell id="yOlf1DxYLfiq7W2MdkIP-157" value="Frame" style="rounded=1;fillColor=#FF33FF;" parent="kWHFex6emPiUPYQI3Onq-1" vertex="1">
                    <mxGeometry x="1211.4944859813083" y="290" width="57.570093457943926" height="30" as="geometry"/>
                </mxCell>
                <mxCell id="yOlf1DxYLfiq7W2MdkIP-175" style="edgeStyle=orthogonalEdgeStyle;rounded=0;orthogonalLoop=1;jettySize=auto;html=1;exitX=0.25;exitY=1;exitDx=0;exitDy=0;entryX=0;entryY=0.5;entryDx=0;entryDy=0;" parent="kWHFex6emPiUPYQI3Onq-1" source="yOlf1DxYLfiq7W2MdkIP-159" target="yOlf1DxYLfiq7W2MdkIP-161" edge="1">
                    <mxGeometry relative="1" as="geometry">
                        <Array as="points">
                            <mxPoint x="1250" y="360"/>
                            <mxPoint x="1250" y="385"/>
                        </Array>
                    </mxGeometry>
                </mxCell>
                <mxCell id="yOlf1DxYLfiq7W2MdkIP-176" style="edgeStyle=orthogonalEdgeStyle;rounded=0;orthogonalLoop=1;jettySize=auto;html=1;exitX=0.25;exitY=1;exitDx=0;exitDy=0;entryX=0;entryY=0.5;entryDx=0;entryDy=0;" parent="kWHFex6emPiUPYQI3Onq-1" source="yOlf1DxYLfiq7W2MdkIP-159" target="yOlf1DxYLfiq7W2MdkIP-171" edge="1">
                    <mxGeometry relative="1" as="geometry">
                        <Array as="points">
                            <mxPoint x="1250" y="360"/>
                            <mxPoint x="1250" y="435"/>
                        </Array>
                    </mxGeometry>
                </mxCell>
                <mxCell id="yOlf1DxYLfiq7W2MdkIP-159" value="ROW_0" style="rounded=1;fillColor=#FFB570;" parent="kWHFex6emPiUPYQI3Onq-1" vertex="1">
                    <mxGeometry x="1239.9971962616823" y="330" width="57.570093457943926" height="30" as="geometry"/>
                </mxCell>
                <mxCell id="yOlf1DxYLfiq7W2MdkIP-172" value="" style="edgeStyle=orthogonalEdgeStyle;rounded=0;orthogonalLoop=1;jettySize=auto;html=1;" parent="kWHFex6emPiUPYQI3Onq-1" source="yOlf1DxYLfiq7W2MdkIP-161" target="yOlf1DxYLfiq7W2MdkIP-171" edge="1">
                    <mxGeometry relative="1" as="geometry"/>
                </mxCell>
                <mxCell id="yOlf1DxYLfiq7W2MdkIP-161" value="FNode_1" style="rounded=1;fillColor=#99CCFF;" parent="kWHFex6emPiUPYQI3Onq-1" vertex="1">
                    <mxGeometry x="1279.059906542056" y="370" width="57.570093457943926" height="30" as="geometry"/>
                </mxCell>
                <mxCell id="yOlf1DxYLfiq7W2MdkIP-180" style="edgeStyle=orthogonalEdgeStyle;rounded=0;orthogonalLoop=1;jettySize=auto;html=1;exitX=0.25;exitY=1;exitDx=0;exitDy=0;entryX=0;entryY=0.5;entryDx=0;entryDy=0;" parent="kWHFex6emPiUPYQI3Onq-1" source="yOlf1DxYLfiq7W2MdkIP-167" target="yOlf1DxYLfiq7W2MdkIP-173" edge="1">
                    <mxGeometry relative="1" as="geometry">
                        <Array as="points">
                            <mxPoint x="1250" y="490"/>
                            <mxPoint x="1250" y="515"/>
                        </Array>
                    </mxGeometry>
                </mxCell>
                <mxCell id="yOlf1DxYLfiq7W2MdkIP-167" value="ROW_1" style="rounded=1;fillColor=#FFB570;" parent="kWHFex6emPiUPYQI3Onq-1" vertex="1">
                    <mxGeometry x="1239.9971962616821" y="460" width="57.570093457943926" height="30" as="geometry"/>
                </mxCell>
                <mxCell id="yOlf1DxYLfiq7W2MdkIP-171" value="FNode_2" style="rounded=1;fillColor=#99CCFF;" parent="kWHFex6emPiUPYQI3Onq-1" vertex="1">
                    <mxGeometry x="1279.06" y="420" width="57.570093457943926" height="30" as="geometry"/>
                </mxCell>
                <mxCell id="yOlf1DxYLfiq7W2MdkIP-173" value="FNode_3" style="rounded=1;fillColor=#99CCFF;" parent="kWHFex6emPiUPYQI3Onq-1" vertex="1">
                    <mxGeometry x="1279.06" y="500" width="57.570093457943926" height="30" as="geometry"/>
                </mxCell>
                <mxCell id="yOlf1DxYLfiq7W2MdkIP-181" style="edgeStyle=orthogonalEdgeStyle;rounded=0;orthogonalLoop=1;jettySize=auto;html=1;exitX=0.25;exitY=1;exitDx=0;exitDy=0;entryX=0;entryY=0.5;entryDx=0;entryDy=0;" parent="kWHFex6emPiUPYQI3Onq-1" source="yOlf1DxYLfiq7W2MdkIP-183" target="yOlf1DxYLfiq7W2MdkIP-186" edge="1">
                    <mxGeometry relative="1" as="geometry">
                        <Array as="points">
                            <mxPoint x="1250.38" y="640"/>
                            <mxPoint x="1250.38" y="665"/>
                        </Array>
                    </mxGeometry>
                </mxCell>
                <mxCell id="yOlf1DxYLfiq7W2MdkIP-183" value="Frame" style="rounded=1;fillColor=#FF33FF;" parent="kWHFex6emPiUPYQI3Onq-1" vertex="1">
                    <mxGeometry x="1241.8744859813082" y="610" width="57.570093457943926" height="30" as="geometry"/>
                </mxCell>
                <mxCell id="yOlf1DxYLfiq7W2MdkIP-184" style="edgeStyle=orthogonalEdgeStyle;rounded=0;orthogonalLoop=1;jettySize=auto;html=1;exitX=0.25;exitY=1;exitDx=0;exitDy=0;entryX=0;entryY=0.5;entryDx=0;entryDy=0;" parent="kWHFex6emPiUPYQI3Onq-1" source="yOlf1DxYLfiq7W2MdkIP-186" target="yOlf1DxYLfiq7W2MdkIP-188" edge="1">
                    <mxGeometry relative="1" as="geometry">
                        <Array as="points">
                            <mxPoint x="1280.38" y="680"/>
                            <mxPoint x="1280.38" y="705"/>
                        </Array>
                    </mxGeometry>
                </mxCell>
                <mxCell id="yOlf1DxYLfiq7W2MdkIP-185" style="edgeStyle=orthogonalEdgeStyle;rounded=0;orthogonalLoop=1;jettySize=auto;html=1;exitX=0.25;exitY=1;exitDx=0;exitDy=0;entryX=0;entryY=0.5;entryDx=0;entryDy=0;" parent="kWHFex6emPiUPYQI3Onq-1" source="yOlf1DxYLfiq7W2MdkIP-186" target="yOlf1DxYLfiq7W2MdkIP-191" edge="1">
                    <mxGeometry relative="1" as="geometry">
                        <Array as="points">
                            <mxPoint x="1280.38" y="680"/>
                            <mxPoint x="1280.38" y="755"/>
                        </Array>
                    </mxGeometry>
                </mxCell>
                <mxCell id="yOlf1DxYLfiq7W2MdkIP-186" value="ROW_0" style="rounded=1;fillColor=#FFB570;" parent="kWHFex6emPiUPYQI3Onq-1" vertex="1">
                    <mxGeometry x="1270.3771962616822" y="650" width="57.570093457943926" height="30" as="geometry"/>
                </mxCell>
                <mxCell id="yOlf1DxYLfiq7W2MdkIP-187" value="" style="edgeStyle=orthogonalEdgeStyle;rounded=0;orthogonalLoop=1;jettySize=auto;html=1;" parent="kWHFex6emPiUPYQI3Onq-1" source="yOlf1DxYLfiq7W2MdkIP-188" target="yOlf1DxYLfiq7W2MdkIP-191" edge="1">
                    <mxGeometry relative="1" as="geometry"/>
                </mxCell>
                <mxCell id="yOlf1DxYLfiq7W2MdkIP-188" value="FNode_4" style="rounded=1;fillColor=#99CCFF;" parent="kWHFex6emPiUPYQI3Onq-1" vertex="1">
                    <mxGeometry x="1309.4399065420562" y="690" width="57.570093457943926" height="30" as="geometry"/>
                </mxCell>
                <mxCell id="yOlf1DxYLfiq7W2MdkIP-191" value="FNode_5" style="rounded=1;fillColor=#99CCFF;" parent="kWHFex6emPiUPYQI3Onq-1" vertex="1">
                    <mxGeometry x="1309.44" y="740" width="57.570093457943926" height="30" as="geometry"/>
                </mxCell>
                <mxCell id="yOlf1DxYLfiq7W2MdkIP-193" style="edgeStyle=orthogonalEdgeStyle;rounded=0;orthogonalLoop=1;jettySize=auto;html=1;exitX=0.25;exitY=1;exitDx=0;exitDy=0;entryX=0;entryY=0.5;entryDx=0;entryDy=0;" parent="kWHFex6emPiUPYQI3Onq-1" source="yOlf1DxYLfiq7W2MdkIP-194" target="yOlf1DxYLfiq7W2MdkIP-197" edge="1">
                    <mxGeometry relative="1" as="geometry">
                        <Array as="points">
                            <mxPoint x="1250" y="810"/>
                            <mxPoint x="1250" y="835"/>
                        </Array>
                    </mxGeometry>
                </mxCell>
                <mxCell id="yOlf1DxYLfiq7W2MdkIP-194" value="Frame" style="rounded=1;fillColor=#FF33FF;" parent="kWHFex6emPiUPYQI3Onq-1" vertex="1">
                    <mxGeometry x="1241.4944859813083" y="780" width="57.570093457943926" height="30" as="geometry"/>
                </mxCell>
                <mxCell id="yOlf1DxYLfiq7W2MdkIP-195" style="edgeStyle=orthogonalEdgeStyle;rounded=0;orthogonalLoop=1;jettySize=auto;html=1;exitX=0.25;exitY=1;exitDx=0;exitDy=0;entryX=0;entryY=0.5;entryDx=0;entryDy=0;" parent="kWHFex6emPiUPYQI3Onq-1" source="yOlf1DxYLfiq7W2MdkIP-197" target="yOlf1DxYLfiq7W2MdkIP-199" edge="1">
                    <mxGeometry relative="1" as="geometry">
                        <Array as="points">
                            <mxPoint x="1280" y="850"/>
                            <mxPoint x="1280" y="875"/>
                        </Array>
                    </mxGeometry>
                </mxCell>
                <mxCell id="yOlf1DxYLfiq7W2MdkIP-197" value="ROW_0" style="rounded=1;fillColor=#FFB570;" parent="kWHFex6emPiUPYQI3Onq-1" vertex="1">
                    <mxGeometry x="1269.9971962616823" y="820" width="57.570093457943926" height="30" as="geometry"/>
                </mxCell>
                <mxCell id="yOlf1DxYLfiq7W2MdkIP-199" value="FNode_6" style="rounded=1;fillColor=#99CCFF;" parent="kWHFex6emPiUPYQI3Onq-1" vertex="1">
                    <mxGeometry x="1309.059906542056" y="860" width="57.570093457943926" height="30" as="geometry"/>
                </mxCell>
                <mxCell id="yOlf1DxYLfiq7W2MdkIP-203" style="edgeStyle=orthogonalEdgeStyle;rounded=0;orthogonalLoop=1;jettySize=auto;html=1;exitX=0.25;exitY=1;exitDx=0;exitDy=0;entryX=0;entryY=0.5;entryDx=0;entryDy=0;" parent="kWHFex6emPiUPYQI3Onq-1" source="yOlf1DxYLfiq7W2MdkIP-201" target="yOlf1DxYLfiq7W2MdkIP-183" edge="1">
                    <mxGeometry relative="1" as="geometry">
                        <mxPoint x="1220" y="630" as="targetPoint"/>
                        <Array as="points">
                            <mxPoint x="1190" y="625"/>
                        </Array>
                    </mxGeometry>
                </mxCell>
                <mxCell id="yOlf1DxYLfiq7W2MdkIP-204" style="edgeStyle=orthogonalEdgeStyle;rounded=0;orthogonalLoop=1;jettySize=auto;html=1;exitX=0.156;exitY=1.011;exitDx=0;exitDy=0;entryX=0;entryY=0.5;entryDx=0;entryDy=0;exitPerimeter=0;" parent="kWHFex6emPiUPYQI3Onq-1" source="yOlf1DxYLfiq7W2MdkIP-201" target="yOlf1DxYLfiq7W2MdkIP-194" edge="1">
                    <mxGeometry relative="1" as="geometry">
                        <mxPoint x="1189.904761904762" y="800" as="targetPoint"/>
                    </mxGeometry>
                </mxCell>
                <mxCell id="yOlf1DxYLfiq7W2MdkIP-201" value="FramesSet__2" style="rounded=1;fillColor=#999999;" parent="kWHFex6emPiUPYQI3Onq-1" vertex="1">
                    <mxGeometry x="1170" y="570" width="130" height="30" as="geometry"/>
                </mxCell>
                <mxCell id="yOlf1DxYLfiq7W2MdkIP-228" value="&lt;font color=&quot;#000000&quot;&gt;Horisont&lt;/font&gt;" style="rounded=0;whiteSpace=wrap;html=1;labelBackgroundColor=none;fillStyle=cross-hatch;fontColor=#FF0000;fillColor=#FF33FF;" parent="kWHFex6emPiUPYQI3Onq-1" vertex="1">
                    <mxGeometry x="1480" y="690" width="120" height="60" as="geometry"/>
                </mxCell>
                <mxCell id="yOlf1DxYLfiq7W2MdkIP-229" value="&lt;font color=&quot;#000000&quot;&gt;Vertical&lt;/font&gt;" style="rounded=0;whiteSpace=wrap;html=1;labelBackgroundColor=none;fillStyle=cross-hatch;fontColor=#FF0000;fillColor=#66FFFF;" parent="kWHFex6emPiUPYQI3Onq-1" vertex="1">
                    <mxGeometry x="1480" y="780" width="120" height="60" as="geometry"/>
                </mxCell>
                <mxCell id="yOlf1DxYLfiq7W2MdkIP-235" value="&lt;font color=&quot;#000000&quot;&gt;Horisont&lt;/font&gt;" style="rounded=0;whiteSpace=wrap;html=1;labelBackgroundColor=none;fillStyle=hatch;fontColor=#FF0000;fillColor=#FF33FF;" parent="kWHFex6emPiUPYQI3Onq-1" vertex="1">
                    <mxGeometry x="1270.38" y="820" width="120" height="70" as="geometry"/>
                </mxCell>
                <mxCell id="yOlf1DxYLfiq7W2MdkIP-241" value="" style="group" parent="kWHFex6emPiUPYQI3Onq-1" connectable="0" vertex="1">
                    <mxGeometry x="1260" y="-460" width="480" height="532" as="geometry"/>
                </mxCell>
                <mxCell id="yOlf1DxYLfiq7W2MdkIP-140" value="Frame&amp;nbsp;" style="swimlane;whiteSpace=wrap;html=1;rounded=0;fillStyle=solid;strokeColor=#99CCFF;strokeWidth=2;fontSize=10;fillColor=none;hachureGap=4;fontFamily=Helvetica;swimlaneLine=1;container=0;" parent="yOlf1DxYLfiq7W2MdkIP-241" vertex="1">
                    <mxGeometry x="280" y="282" width="200" height="250" as="geometry"/>
                </mxCell>
                <mxCell id="yOlf1DxYLfiq7W2MdkIP-113" value="" style="edgeStyle=orthogonalEdgeStyle;rounded=1;orthogonalLoop=1;jettySize=auto;html=1;fontSize=10;" parent="yOlf1DxYLfiq7W2MdkIP-241" source="yOlf1DxYLfiq7W2MdkIP-99" edge="1">
                    <mxGeometry relative="1" as="geometry">
                        <mxPoint x="280" y="100" as="targetPoint"/>
                    </mxGeometry>
                </mxCell>
                <mxCell id="yOlf1DxYLfiq7W2MdkIP-146" value="" style="edgeStyle=orthogonalEdgeStyle;rounded=1;hachureGap=4;orthogonalLoop=1;jettySize=auto;html=1;fontFamily=Architects Daughter;fontSource=https%3A%2F%2Ffonts.googleapis.com%2Fcss%3Ffamily%3DArchitects%2BDaughter;fontSize=16;" parent="yOlf1DxYLfiq7W2MdkIP-241" source="yOlf1DxYLfiq7W2MdkIP-114" edge="1">
                    <mxGeometry relative="1" as="geometry">
                        <mxPoint x="380" y="280" as="targetPoint"/>
                    </mxGeometry>
                </mxCell>
                <mxCell id="yOlf1DxYLfiq7W2MdkIP-114" value="Frame" style="swimlane;whiteSpace=wrap;html=1;rounded=1;fillStyle=solid;strokeColor=#99CCFF;strokeWidth=2;fontSize=10;fillColor=none;container=0;" parent="yOlf1DxYLfiq7W2MdkIP-241" vertex="1">
                    <mxGeometry x="280" width="200" height="250" as="geometry"/>
                </mxCell>
                <mxCell id="yOlf1DxYLfiq7W2MdkIP-141" value="ROW (row_id: 0)" style="swimlane;fontStyle=0;childLayout=stackLayout;horizontal=1;startSize=30;horizontalStack=0;resizeParent=1;resizeParentMax=0;resizeLast=0;collapsible=1;marginBottom=0;whiteSpace=wrap;html=1;rounded=0;fillStyle=solid;strokeColor=#99CCFF;strokeWidth=2;fontSize=10;fillColor=none;hachureGap=4;fontFamily=Helvetica;swimlaneLine=1;container=0;" parent="yOlf1DxYLfiq7W2MdkIP-241" vertex="1">
                    <mxGeometry x="310" y="332" width="140" height="90" as="geometry"/>
                </mxCell>
                <mxCell id="yOlf1DxYLfiq7W2MdkIP-144" value="ROW (row_id: 1)" style="swimlane;fontStyle=0;childLayout=stackLayout;horizontal=1;startSize=30;horizontalStack=0;resizeParent=1;resizeParentMax=0;resizeLast=0;collapsible=1;marginBottom=0;whiteSpace=wrap;html=1;rounded=0;fillStyle=solid;strokeColor=#99CCFF;strokeWidth=2;fontSize=10;fillColor=none;hachureGap=4;fontFamily=Helvetica;swimlaneLine=1;container=0;" parent="yOlf1DxYLfiq7W2MdkIP-241" vertex="1">
                    <mxGeometry x="310" y="444.22" width="140" height="60" as="geometry"/>
                </mxCell>
                <mxCell id="yOlf1DxYLfiq7W2MdkIP-99" value="VFramesSet (pos: 1)" style="swimlane;horizontal=0;whiteSpace=wrap;html=1;rounded=1;fillStyle=solid;strokeColor=#99CCFF;strokeWidth=2;fontSize=10;fillColor=none;container=0;" parent="yOlf1DxYLfiq7W2MdkIP-241" vertex="1">
                    <mxGeometry width="200" height="200" as="geometry"/>
                </mxCell>
                <mxCell id="yOlf1DxYLfiq7W2MdkIP-100" value="VFramesSet (pos: 1)" style="swimlane;horizontal=0;whiteSpace=wrap;html=1;rounded=1;fillStyle=solid;strokeColor=#99CCFF;strokeWidth=2;fontSize=10;fillColor=none;container=0;" parent="yOlf1DxYLfiq7W2MdkIP-241" vertex="1">
                    <mxGeometry y="220" width="200" height="210" as="geometry"/>
                </mxCell>
                <mxCell id="yOlf1DxYLfiq7W2MdkIP-115" value="ROW (row_id: 0)" style="swimlane;fontStyle=0;childLayout=stackLayout;horizontal=1;startSize=30;horizontalStack=0;resizeParent=1;resizeParentMax=0;resizeLast=0;collapsible=1;marginBottom=0;whiteSpace=wrap;html=1;rounded=1;fillStyle=auto;strokeColor=#b85450;strokeWidth=2;fontSize=10;fillColor=#f8cecc;container=0;" parent="yOlf1DxYLfiq7W2MdkIP-241" vertex="1">
                    <mxGeometry x="310" y="52" width="140" height="90" as="geometry"/>
                </mxCell>
                <mxCell id="yOlf1DxYLfiq7W2MdkIP-130" value="ROW (row_id: 1)" style="swimlane;fontStyle=0;childLayout=stackLayout;horizontal=1;startSize=30;horizontalStack=0;resizeParent=1;resizeParentMax=0;resizeLast=0;collapsible=1;marginBottom=0;whiteSpace=wrap;html=1;rounded=1;fillStyle=solid;strokeColor=#b85450;strokeWidth=2;fontSize=10;fillColor=#f8cecc;container=0;" parent="yOlf1DxYLfiq7W2MdkIP-241" vertex="1">
                    <mxGeometry x="310" y="164.22000000000003" width="140" height="60" as="geometry"/>
                </mxCell>
                <mxCell id="yOlf1DxYLfiq7W2MdkIP-116" value="FNODE (row_id: 0)" style="text;strokeColor=#82b366;fillColor=#d5e8d4;align=left;verticalAlign=middle;spacingLeft=4;spacingRight=4;overflow=hidden;points=[[0,0.5],[1,0.5]];portConstraint=eastwest;rotatable=0;whiteSpace=wrap;html=1;rounded=1;fillStyle=solid;strokeWidth=2;fontSize=10;container=0;" parent="yOlf1DxYLfiq7W2MdkIP-241" vertex="1">
                    <mxGeometry x="310" y="82" width="140" height="30" as="geometry"/>
                </mxCell>
                <mxCell id="yOlf1DxYLfiq7W2MdkIP-119" value="FNODE (row_id: 0)" style="text;strokeColor=#82b366;fillColor=#d5e8d4;align=left;verticalAlign=middle;spacingLeft=4;spacingRight=4;overflow=hidden;points=[[0,0.5],[1,0.5]];portConstraint=eastwest;rotatable=0;whiteSpace=wrap;html=1;rounded=1;fillStyle=solid;strokeWidth=2;fontSize=10;container=0;" parent="yOlf1DxYLfiq7W2MdkIP-241" vertex="1">
                    <mxGeometry x="310" y="112" width="140" height="30" as="geometry"/>
                </mxCell>
                <mxCell id="yOlf1DxYLfiq7W2MdkIP-131" value="FNODE (row_id: 1)" style="text;strokeColor=#82b366;fillColor=#d5e8d4;align=left;verticalAlign=middle;spacingLeft=4;spacingRight=4;overflow=hidden;points=[[0,0.5],[1,0.5]];portConstraint=eastwest;rotatable=0;whiteSpace=wrap;html=1;rounded=1;fillStyle=solid;strokeWidth=2;fontSize=10;container=0;" parent="yOlf1DxYLfiq7W2MdkIP-241" vertex="1">
                    <mxGeometry x="310" y="194.22000000000003" width="140" height="30" as="geometry"/>
                </mxCell>
                <mxCell id="yOlf1DxYLfiq7W2MdkIP-142" value="FNODE (row_id: 0)" style="text;strokeColor=none;fillColor=none;align=left;verticalAlign=middle;spacingLeft=4;spacingRight=4;overflow=hidden;points=[[0,0.5],[1,0.5]];portConstraint=eastwest;rotatable=0;whiteSpace=wrap;html=1;rounded=0;fillStyle=solid;strokeWidth=2;fontSize=10;hachureGap=4;fontFamily=Helvetica;swimlaneLine=1;container=0;" parent="yOlf1DxYLfiq7W2MdkIP-241" vertex="1">
                    <mxGeometry x="310" y="362" width="140" height="30" as="geometry"/>
                </mxCell>
                <mxCell id="yOlf1DxYLfiq7W2MdkIP-143" value="FNODE (row_id: 0)" style="text;strokeColor=none;fillColor=none;align=left;verticalAlign=middle;spacingLeft=4;spacingRight=4;overflow=hidden;points=[[0,0.5],[1,0.5]];portConstraint=eastwest;rotatable=0;whiteSpace=wrap;html=1;rounded=0;fillStyle=solid;strokeWidth=2;fontSize=10;hachureGap=4;fontFamily=Helvetica;swimlaneLine=1;container=0;" parent="yOlf1DxYLfiq7W2MdkIP-241" vertex="1">
                    <mxGeometry x="310" y="392" width="140" height="30" as="geometry"/>
                </mxCell>
                <mxCell id="yOlf1DxYLfiq7W2MdkIP-145" value="FNODE (row_id: 1)" style="text;strokeColor=none;fillColor=none;align=left;verticalAlign=middle;spacingLeft=4;spacingRight=4;overflow=hidden;points=[[0,0.5],[1,0.5]];portConstraint=eastwest;rotatable=0;whiteSpace=wrap;html=1;rounded=0;fillStyle=solid;strokeWidth=2;fontSize=10;hachureGap=4;fontFamily=Helvetica;swimlaneLine=1;container=0;" parent="yOlf1DxYLfiq7W2MdkIP-241" vertex="1">
                    <mxGeometry x="310" y="474.22" width="140" height="30" as="geometry"/>
                </mxCell>
                <mxCell id="yOlf1DxYLfiq7W2MdkIP-51" value="Frame" style="swimlane;fontStyle=0;childLayout=stackLayout;horizontal=1;startSize=30;horizontalStack=0;resizeParent=1;resizeParentMax=0;resizeLast=0;collapsible=1;marginBottom=0;whiteSpace=wrap;html=1;fillStyle=solid;fontSize=10;fillColor=#FF33FF;rounded=1;container=0;" parent="yOlf1DxYLfiq7W2MdkIP-241" vertex="1">
                    <mxGeometry x="35" y="51.889999999999986" width="130" height="90" as="geometry"/>
                </mxCell>
                <mxCell id="yOlf1DxYLfiq7W2MdkIP-52" value="ROW (cols: 2, row_id: 0)" style="text;strokeColor=#b85450;fillColor=#f8cecc;align=left;verticalAlign=middle;spacingLeft=4;spacingRight=4;overflow=hidden;points=[[0,0.5],[1,0.5]];portConstraint=eastwest;rotatable=0;whiteSpace=wrap;html=1;fillStyle=solid;fontSize=10;rounded=1;container=0;" parent="yOlf1DxYLfiq7W2MdkIP-241" vertex="1">
                    <mxGeometry x="35" y="81.88999999999999" width="130" height="30" as="geometry"/>
                </mxCell>
                <mxCell id="yOlf1DxYLfiq7W2MdkIP-57" value="ROW (cols: 1, row_id:1)" style="text;strokeColor=#b85450;fillColor=#f8cecc;align=left;verticalAlign=middle;spacingLeft=4;spacingRight=4;overflow=hidden;points=[[0,0.5],[1,0.5]];portConstraint=eastwest;rotatable=0;whiteSpace=wrap;html=1;fillStyle=auto;fontSize=10;rounded=1;container=0;" parent="yOlf1DxYLfiq7W2MdkIP-241" vertex="1">
                    <mxGeometry x="35" y="111.88999999999999" width="130" height="30" as="geometry"/>
                </mxCell>
                <mxCell id="yOlf1DxYLfiq7W2MdkIP-58" value="Frame&lt;br&gt;" style="swimlane;fontStyle=0;childLayout=stackLayout;horizontal=1;startSize=30;horizontalStack=0;resizeParent=1;resizeParentMax=0;resizeLast=0;collapsible=1;marginBottom=0;whiteSpace=wrap;html=1;fillStyle=solid;fontSize=10;fillColor=#e1d5e7;strokeColor=#9673a6;rounded=1;container=0;" parent="yOlf1DxYLfiq7W2MdkIP-241" vertex="1">
                    <mxGeometry x="35" y="240" width="130" height="60" as="geometry"/>
                </mxCell>
                <mxCell id="yOlf1DxYLfiq7W2MdkIP-72" value="Frame&lt;br&gt;" style="swimlane;fontStyle=0;childLayout=stackLayout;horizontal=1;startSize=30;horizontalStack=0;resizeParent=1;resizeParentMax=0;resizeLast=0;collapsible=1;marginBottom=0;whiteSpace=wrap;html=1;fillStyle=dashed;fontSize=10;fillColor=none;strokeColor=rgb(0, 0, 0);fontColor=rgb(0, 0, 0);rounded=1;container=0;" parent="yOlf1DxYLfiq7W2MdkIP-241" vertex="1">
                    <mxGeometry x="35" y="330" width="130" height="60" as="geometry"/>
                </mxCell>
                <mxCell id="yOlf1DxYLfiq7W2MdkIP-74" value="" style="edgeStyle=orthogonalEdgeStyle;rounded=1;orthogonalLoop=1;jettySize=auto;html=1;fontSize=10;" parent="yOlf1DxYLfiq7W2MdkIP-241" source="yOlf1DxYLfiq7W2MdkIP-58" target="yOlf1DxYLfiq7W2MdkIP-72" edge="1">
                    <mxGeometry relative="1" as="geometry"/>
                </mxCell>
                <mxCell id="yOlf1DxYLfiq7W2MdkIP-59" value="ROW (cols: 2, row_id: 0)" style="text;strokeColor=none;fillColor=none;align=left;verticalAlign=middle;spacingLeft=4;spacingRight=4;overflow=hidden;points=[[0,0.5],[1,0.5]];portConstraint=eastwest;rotatable=0;whiteSpace=wrap;html=1;fillStyle=dashed;fontSize=10;rounded=1;container=0;" parent="yOlf1DxYLfiq7W2MdkIP-241" vertex="1">
                    <mxGeometry x="35" y="270" width="130" height="30" as="geometry"/>
                </mxCell>
                <mxCell id="yOlf1DxYLfiq7W2MdkIP-73" value="ROW (cols: 1, row_id: 0)" style="text;strokeColor=none;fillColor=none;align=left;verticalAlign=middle;spacingLeft=4;spacingRight=4;overflow=hidden;points=[[0,0.5],[1,0.5]];portConstraint=eastwest;rotatable=0;whiteSpace=wrap;html=1;fillStyle=dashed;fontSize=10;rounded=1;container=0;" parent="yOlf1DxYLfiq7W2MdkIP-241" vertex="1">
                    <mxGeometry x="35" y="360" width="130" height="30" as="geometry"/>
                </mxCell>
                <mxCell id="kWHFex6emPiUPYQI3Onq-66" value="PROPS" style="" parent="kWHFex6emPiUPYQI3Onq-0"/>
                <mxCell id="kWHFex6emPiUPYQI3Onq-44" value="FC_Props" style="swimlane;fontStyle=0;childLayout=stackLayout;horizontal=1;startSize=30;horizontalStack=0;resizeParent=1;resizeParentMax=0;resizeLast=0;collapsible=1;marginBottom=0;glass=0;fillColor=#d5e8d4;strokeColor=#82b366;fontColor=#000000;rounded=1;" parent="kWHFex6emPiUPYQI3Onq-66" vertex="1">
                    <mxGeometry x="-180" y="120" width="140" height="120" as="geometry">
                        <mxRectangle x="-160" y="200" width="90" height="30" as="alternateBounds"/>
                    </mxGeometry>
                </mxCell>
                <mxCell id="kWHFex6emPiUPYQI3Onq-45" value="id:string" style="text;strokeColor=none;fillColor=none;align=left;verticalAlign=middle;spacingLeft=4;spacingRight=4;overflow=hidden;points=[[0,0.5],[1,0.5]];portConstraint=eastwest;rotatable=0;glass=0;rounded=1;" parent="kWHFex6emPiUPYQI3Onq-44" vertex="1">
                    <mxGeometry y="30" width="140" height="30" as="geometry"/>
                </mxCell>
                <mxCell id="kWHFex6emPiUPYQI3Onq-46" value="title:string" style="text;strokeColor=none;fillColor=none;align=left;verticalAlign=middle;spacingLeft=4;spacingRight=4;overflow=hidden;points=[[0,0.5],[1,0.5]];portConstraint=eastwest;rotatable=0;glass=0;rounded=1;" parent="kWHFex6emPiUPYQI3Onq-44" vertex="1">
                    <mxGeometry y="60" width="140" height="30" as="geometry"/>
                </mxCell>
                <mxCell id="kWHFex6emPiUPYQI3Onq-47" value="VFSets: Array[]" style="text;strokeColor=none;fillColor=none;align=left;verticalAlign=middle;spacingLeft=4;spacingRight=4;overflow=hidden;points=[[0,0.5],[1,0.5]];portConstraint=eastwest;rotatable=0;glass=0;rounded=1;" parent="kWHFex6emPiUPYQI3Onq-44" vertex="1">
                    <mxGeometry y="90" width="140" height="30" as="geometry"/>
                </mxCell>
                <mxCell id="kWHFex6emPiUPYQI3Onq-49" value="VFramesSet_Props" style="swimlane;fontStyle=0;childLayout=stackLayout;horizontal=1;startSize=30;horizontalStack=0;resizeParent=1;resizeParentMax=0;resizeLast=0;collapsible=1;marginBottom=0;glass=0;fillColor=#d5e8d4;strokeColor=#82b366;fontColor=#000000;rounded=1;" parent="kWHFex6emPiUPYQI3Onq-66" vertex="1">
                    <mxGeometry x="-160" y="320" width="160" height="120" as="geometry">
                        <mxRectangle x="-160" y="320" width="140" height="30" as="alternateBounds"/>
                    </mxGeometry>
                </mxCell>
                <mxCell id="kWHFex6emPiUPYQI3Onq-50" value="id:string" style="text;strokeColor=none;fillColor=none;align=left;verticalAlign=middle;spacingLeft=4;spacingRight=4;overflow=hidden;points=[[0,0.5],[1,0.5]];portConstraint=eastwest;rotatable=0;glass=0;rounded=1;" parent="kWHFex6emPiUPYQI3Onq-49" vertex="1">
                    <mxGeometry y="30" width="160" height="30" as="geometry"/>
                </mxCell>
                <mxCell id="kWHFex6emPiUPYQI3Onq-51" value="VFS_PosCounter:number" style="text;strokeColor=none;fillColor=none;align=left;verticalAlign=middle;spacingLeft=4;spacingRight=4;overflow=hidden;points=[[0,0.5],[1,0.5]];portConstraint=eastwest;rotatable=0;glass=0;rounded=1;" parent="kWHFex6emPiUPYQI3Onq-49" vertex="1">
                    <mxGeometry y="60" width="160" height="30" as="geometry"/>
                </mxCell>
                <mxCell id="kWHFex6emPiUPYQI3Onq-52" value="Frames: Array[]" style="text;strokeColor=none;fillColor=none;align=left;verticalAlign=middle;spacingLeft=4;spacingRight=4;overflow=hidden;points=[[0,0.5],[1,0.5]];portConstraint=eastwest;rotatable=0;glass=0;rounded=1;" parent="kWHFex6emPiUPYQI3Onq-49" vertex="1">
                    <mxGeometry y="90" width="160" height="30" as="geometry"/>
                </mxCell>
                <mxCell id="kWHFex6emPiUPYQI3Onq-55" value="Frame_Props" style="swimlane;fontStyle=0;childLayout=stackLayout;horizontal=1;startSize=30;horizontalStack=0;resizeParent=1;resizeParentMax=0;resizeLast=0;collapsible=1;marginBottom=0;glass=0;fillColor=#d5e8d4;strokeColor=#82b366;fontColor=#000000;rounded=1;" parent="kWHFex6emPiUPYQI3Onq-66" vertex="1">
                    <mxGeometry x="-160" y="440" width="160" height="120" as="geometry">
                        <mxRectangle x="-160" y="440" width="140" height="30" as="alternateBounds"/>
                    </mxGeometry>
                </mxCell>
                <mxCell id="kWHFex6emPiUPYQI3Onq-56" value="id:string" style="text;strokeColor=none;fillColor=none;align=left;verticalAlign=middle;spacingLeft=4;spacingRight=4;overflow=hidden;points=[[0,0.5],[1,0.5]];portConstraint=eastwest;rotatable=0;glass=0;rounded=1;" parent="kWHFex6emPiUPYQI3Onq-55" vertex="1">
                    <mxGeometry y="30" width="160" height="30" as="geometry"/>
                </mxCell>
                <mxCell id="kWHFex6emPiUPYQI3Onq-57" value="frCode:string" style="text;strokeColor=none;fillColor=none;align=left;verticalAlign=middle;spacingLeft=4;spacingRight=4;overflow=hidden;points=[[0,0.5],[1,0.5]];portConstraint=eastwest;rotatable=0;glass=0;rounded=1;" parent="kWHFex6emPiUPYQI3Onq-55" vertex="1">
                    <mxGeometry y="60" width="160" height="30" as="geometry"/>
                </mxCell>
                <mxCell id="kWHFex6emPiUPYQI3Onq-58" value="grid: Array[]" style="text;strokeColor=none;fillColor=none;align=left;verticalAlign=middle;spacingLeft=4;spacingRight=4;overflow=hidden;points=[[0,0.5],[1,0.5]];portConstraint=eastwest;rotatable=0;glass=0;rounded=1;" parent="kWHFex6emPiUPYQI3Onq-55" vertex="1">
                    <mxGeometry y="90" width="160" height="30" as="geometry"/>
                </mxCell>
            </root>
        </mxGraphModel>
    </diagram>
    <diagram id="cF9B5ZIREWcWw7WxsE7y" name="CanvasModel">
        <mxGraphModel dx="1086" dy="893" grid="1" gridSize="10" guides="1" tooltips="1" connect="1" arrows="1" fold="1" page="1" pageScale="1" pageWidth="1169" pageHeight="827" math="0" shadow="0">
            <root>
                <mxCell id="0"/>
                <mxCell id="1" parent="0"/>
                <mxCell id="pBzL1GKdY3qQCGCWsYzm-1" value="" style="swimlane;startSize=0;movable=0;resizable=0;rotatable=0;deletable=0;editable=0;connectable=0;" parent="1" vertex="1">
                    <mxGeometry x="200" y="40" width="778.4" height="460" as="geometry"/>
                </mxCell>
                <mxCell id="pBzL1GKdY3qQCGCWsYzm-36" value="" style="group" parent="pBzL1GKdY3qQCGCWsYzm-1" vertex="1" connectable="0">
                    <mxGeometry y="100" width="200" height="180" as="geometry"/>
                </mxCell>
                <mxCell id="pBzL1GKdY3qQCGCWsYzm-37" value="" style="whiteSpace=wrap;html=1;labelBackgroundColor=none;fontSize=14;strokeWidth=3;gradientColor=none;gradientDirection=east;fontColor=#000000;movable=1;resizable=1;rotatable=1;deletable=1;editable=1;connectable=1;container=0;" parent="pBzL1GKdY3qQCGCWsYzm-36" vertex="1">
                    <mxGeometry width="200.00000000000009" height="180" as="geometry"/>
                </mxCell>
                <mxCell id="pBzL1GKdY3qQCGCWsYzm-38" value="" style="rounded=0;whiteSpace=wrap;html=1;labelBackgroundColor=none;fontSize=14;strokeColor=#000000;strokeWidth=3;fillColor=#999999;gradientColor=#66B2FF;gradientDirection=east;fontColor=#000000;movable=1;resizable=1;rotatable=1;deletable=1;editable=1;connectable=1;container=0;" parent="pBzL1GKdY3qQCGCWsYzm-36" vertex="1">
                    <mxGeometry x="20" y="14.4" width="160" height="151.2" as="geometry"/>
                </mxCell>
                <mxCell id="pBzL1GKdY3qQCGCWsYzm-16" value="" style="group" parent="pBzL1GKdY3qQCGCWsYzm-1" vertex="1" connectable="0">
                    <mxGeometry y="320" width="78.39999999999998" height="140" as="geometry"/>
                </mxCell>
                <mxCell id="pBzL1GKdY3qQCGCWsYzm-17" value="" style="whiteSpace=wrap;html=1;labelBackgroundColor=none;fontSize=14;strokeWidth=3;gradientColor=none;gradientDirection=east;fontColor=#000000;movable=1;resizable=1;rotatable=1;deletable=1;editable=1;connectable=1;container=0;" parent="pBzL1GKdY3qQCGCWsYzm-16" vertex="1">
                    <mxGeometry width="78.4" height="140" as="geometry"/>
                </mxCell>
                <mxCell id="pBzL1GKdY3qQCGCWsYzm-18" value="" style="rounded=0;whiteSpace=wrap;html=1;labelBackgroundColor=none;fontSize=14;strokeColor=#000000;strokeWidth=3;fillColor=#999999;gradientColor=#66B2FF;gradientDirection=east;fontColor=#000000;movable=1;resizable=1;rotatable=1;deletable=1;editable=1;connectable=1;container=0;" parent="pBzL1GKdY3qQCGCWsYzm-16" vertex="1">
                    <mxGeometry x="16.799999999999955" y="11.200000000000045" width="44.800000000000004" height="117.60000000000001" as="geometry"/>
                </mxCell>
                <mxCell id="pBzL1GKdY3qQCGCWsYzm-13" value="" style="group" parent="pBzL1GKdY3qQCGCWsYzm-1" vertex="1" connectable="0">
                    <mxGeometry x="80" y="280" width="120" height="180" as="geometry"/>
                </mxCell>
                <mxCell id="pBzL1GKdY3qQCGCWsYzm-9" value="" style="whiteSpace=wrap;html=1;labelBackgroundColor=none;fontSize=14;strokeWidth=3;gradientColor=none;gradientDirection=east;fontColor=#000000;movable=1;resizable=1;rotatable=1;deletable=1;editable=1;connectable=1;container=0;" parent="pBzL1GKdY3qQCGCWsYzm-13" vertex="1">
                    <mxGeometry width="120.00000000000004" height="180" as="geometry"/>
                </mxCell>
                <mxCell id="pBzL1GKdY3qQCGCWsYzm-10" value="" style="rounded=0;whiteSpace=wrap;html=1;labelBackgroundColor=none;fontSize=14;strokeColor=#000000;strokeWidth=3;fillColor=#999999;gradientColor=#66B2FF;gradientDirection=east;fontColor=#000000;movable=1;resizable=1;rotatable=1;deletable=1;editable=1;connectable=1;container=0;" parent="pBzL1GKdY3qQCGCWsYzm-13" vertex="1">
                    <mxGeometry x="25.71428571428565" y="14.400000000000059" width="68.5714285714286" height="151.20000000000002" as="geometry"/>
                </mxCell>
                <mxCell id="pBzL1GKdY3qQCGCWsYzm-22" value="w1+w2, h2" style="text;html=1;align=center;verticalAlign=middle;resizable=0;points=[];autosize=1;strokeColor=none;fillColor=none;" parent="pBzL1GKdY3qQCGCWsYzm-1" vertex="1">
                    <mxGeometry x="195" y="250" width="80" height="30" as="geometry"/>
                </mxCell>
                <mxCell id="pBzL1GKdY3qQCGCWsYzm-25" value="w1, h1" style="text;html=1;align=center;verticalAlign=middle;resizable=0;points=[];autosize=1;strokeColor=none;fillColor=none;" parent="pBzL1GKdY3qQCGCWsYzm-1" vertex="1">
                    <mxGeometry x="15" y="290" width="60" height="30" as="geometry"/>
                </mxCell>
                <mxCell id="pBzL1GKdY3qQCGCWsYzm-2" value="0, 0" style="text;html=1;align=center;verticalAlign=middle;resizable=0;points=[];autosize=1;strokeColor=none;fillColor=none;" parent="1" vertex="1">
                    <mxGeometry x="160" y="500" width="40" height="30" as="geometry"/>
                </mxCell>
                <mxCell id="pBzL1GKdY3qQCGCWsYzm-19" value="w1, o" style="text;html=1;align=center;verticalAlign=middle;resizable=0;points=[];autosize=1;strokeColor=none;fillColor=none;" parent="1" vertex="1">
                    <mxGeometry x="255" y="505" width="50" height="30" as="geometry"/>
                </mxCell>
                <mxCell id="pBzL1GKdY3qQCGCWsYzm-20" value="w1+w2, 0" style="text;html=1;align=center;verticalAlign=middle;resizable=0;points=[];autosize=1;strokeColor=none;fillColor=none;" parent="1" vertex="1">
                    <mxGeometry x="365" y="505" width="70" height="30" as="geometry"/>
                </mxCell>
                <mxCell id="pBzL1GKdY3qQCGCWsYzm-26" value="0, h1" style="text;html=1;align=center;verticalAlign=middle;resizable=0;points=[];autosize=1;strokeColor=none;fillColor=none;" parent="1" vertex="1">
                    <mxGeometry x="140" y="330" width="50" height="30" as="geometry"/>
                </mxCell>
                <mxCell id="pBzL1GKdY3qQCGCWsYzm-35" value="" style="edgeStyle=orthogonalEdgeStyle;rounded=0;orthogonalLoop=1;jettySize=auto;html=1;" parent="1" source="pBzL1GKdY3qQCGCWsYzm-27" target="pBzL1GKdY3qQCGCWsYzm-31" edge="1">
                    <mxGeometry relative="1" as="geometry"/>
                </mxCell>
                <mxCell id="pBzL1GKdY3qQCGCWsYzm-27" value="M1" style="swimlane;fontStyle=0;childLayout=stackLayout;horizontal=1;startSize=30;horizontalStack=0;resizeParent=1;resizeParentMax=0;resizeLast=0;collapsible=1;marginBottom=0;whiteSpace=wrap;html=1;" parent="1" vertex="1">
                    <mxGeometry x="160" y="535" width="120" height="120" as="geometry"/>
                </mxCell>
                <mxCell id="pBzL1GKdY3qQCGCWsYzm-28" value="offset:{0,0}&lt;span style=&quot;white-space: pre;&quot;&gt;&#9;&lt;/span&gt;" style="text;strokeColor=none;fillColor=none;align=left;verticalAlign=middle;spacingLeft=4;spacingRight=4;overflow=hidden;points=[[0,0.5],[1,0.5]];portConstraint=eastwest;rotatable=0;whiteSpace=wrap;html=1;" parent="pBzL1GKdY3qQCGCWsYzm-27" vertex="1">
                    <mxGeometry y="30" width="120" height="30" as="geometry"/>
                </mxCell>
                <mxCell id="pBzL1GKdY3qQCGCWsYzm-29" value="startPos:{0,0}" style="text;strokeColor=none;fillColor=none;align=left;verticalAlign=middle;spacingLeft=4;spacingRight=4;overflow=hidden;points=[[0,0.5],[1,0.5]];portConstraint=eastwest;rotatable=0;whiteSpace=wrap;html=1;" parent="pBzL1GKdY3qQCGCWsYzm-27" vertex="1">
                    <mxGeometry y="60" width="120" height="30" as="geometry"/>
                </mxCell>
                <mxCell id="pBzL1GKdY3qQCGCWsYzm-30" value="endPos:{w1, h1}" style="text;strokeColor=none;fillColor=none;align=left;verticalAlign=middle;spacingLeft=4;spacingRight=4;overflow=hidden;points=[[0,0.5],[1,0.5]];portConstraint=eastwest;rotatable=0;whiteSpace=wrap;html=1;" parent="pBzL1GKdY3qQCGCWsYzm-27" vertex="1">
                    <mxGeometry y="90" width="120" height="30" as="geometry"/>
                </mxCell>
                <mxCell id="pBzL1GKdY3qQCGCWsYzm-31" value="M2" style="swimlane;fontStyle=0;childLayout=stackLayout;horizontal=1;startSize=30;horizontalStack=0;resizeParent=1;resizeParentMax=0;resizeLast=0;collapsible=1;marginBottom=0;whiteSpace=wrap;html=1;fillColor=rgb(255, 255, 255);strokeColor=rgb(0, 0, 0);fontColor=rgb(0, 0, 0);" parent="1" vertex="1">
                    <mxGeometry x="305" y="535" width="195" height="120" as="geometry"/>
                </mxCell>
                <mxCell id="pBzL1GKdY3qQCGCWsYzm-32" value="offset:{w1,0}&lt;span style=&quot;white-space: pre;&quot;&gt;&#9;&lt;/span&gt;" style="text;strokeColor=none;fillColor=none;align=left;verticalAlign=middle;spacingLeft=4;spacingRight=4;overflow=hidden;points=[[0,0.5],[1,0.5]];portConstraint=eastwest;rotatable=0;whiteSpace=wrap;html=1;" parent="pBzL1GKdY3qQCGCWsYzm-31" vertex="1">
                    <mxGeometry y="30" width="195" height="30" as="geometry"/>
                </mxCell>
                <mxCell id="pBzL1GKdY3qQCGCWsYzm-33" value="startPos:{0+offset.x,0+offset.y}" style="text;strokeColor=none;fillColor=none;align=left;verticalAlign=middle;spacingLeft=4;spacingRight=4;overflow=hidden;points=[[0,0.5],[1,0.5]];portConstraint=eastwest;rotatable=0;whiteSpace=wrap;html=1;" parent="pBzL1GKdY3qQCGCWsYzm-31" vertex="1">
                    <mxGeometry y="60" width="195" height="30" as="geometry"/>
                </mxCell>
                <mxCell id="pBzL1GKdY3qQCGCWsYzm-34" value="endPos:{offset.x+w2, offset.y+h2}" style="text;strokeColor=none;fillColor=none;align=left;verticalAlign=middle;spacingLeft=4;spacingRight=4;overflow=hidden;points=[[0,0.5],[1,0.5]];portConstraint=eastwest;rotatable=0;whiteSpace=wrap;html=1;" parent="pBzL1GKdY3qQCGCWsYzm-31" vertex="1">
                    <mxGeometry y="90" width="195" height="30" as="geometry"/>
                </mxCell>
                <mxCell id="pBzL1GKdY3qQCGCWsYzm-24" value="w1,h2" style="text;html=1;align=center;verticalAlign=middle;resizable=0;points=[];autosize=1;strokeColor=none;fillColor=none;" parent="1" vertex="1">
                    <mxGeometry x="139.99999999999997" y="290" width="60" height="30" as="geometry"/>
                </mxCell>
            </root>
        </mxGraphModel>
    </diagram>
</mxfile>